<svg viewBox="0 0 61 32" xmlns="http://www.w3.org/2000/svg"><g fill="#FFF" fill-rule="nonzero" stroke="#000C14"><path d="M38.7 9.7H27.5V6.2c0-.6-.6-1.2-1.3-1.2-.7 0-1.2.5-1.2 1.2v4.7c0 .6.6 1.2 1.3 1.2h12.5c.7 0 1.3-.5 1.3-1.2-.1-.7-.7-1.2-1.4-1.2zM47.5 16c-4.1 0-7.5 3.4-7.5 7.5s3.4 7.5 7.5 7.5 7.5-3.4 7.5-7.5-3.4-7.5-7.5-7.5zm0 12.5c-2.8 0-5-2.2-5-5s2.2-5 5-5 5 2.2 5 5-2.2 5-5 5zM11.5 16C7.4 16 4 19.4 4 23.5S7.4 31 11.5 31s7.5-3.4 7.5-7.5-3.4-7.5-7.5-7.5zm0 12.5c-2.8 0-5-2.2-5-5s2.2-5 5-5 5 2.2 5 5-2.2 5-5 5z"/><path d="M41.8 24H17.2c-.7 0-1.2.7-1.2 1.5s.5 1.5 1.2 1.5h24.5c.7 0 1.2-.7 1.2-1.5s-.4-1.5-1.1-1.5z"/><path d="M46.9 8.8C45.1 7.3 36.9 1 24.4 1c-2.4 0-8.5.3-13.9 2.6H4.7c-.5 0-.9.3-1.1.8-.2.5-.1 1 .3 1.4L5 7.1c-2.7 2.5-4 5.7-4 9.5C1 21.1 1.4 27 4.7 27c.7 0 1.2-.6 1.2-1.3 0-.7-.6-1.3-1.2-1.3 0 0-1.2-.7-1.2-7.8 0-3.5 1.3-6.2 4.1-8.4.3-.2.4-.5.5-.9 0-.4-.4-1.1-.4-1.1h3c.2 0 .3 0 .5-.1 5.1-2.3 10.9-2.5 13.2-2.5 13 0 21.2 7.4 21.3 7.5.2.2.5.3.8.3 8 0 11 5.4 11.1 6.5v5.2c0 .7-.9 1.3-1.2 1.3h-2.5c-.7 0-1.2.6-1.2 1.3 0 .7.6 1.3 1.2 1.3h2.5c1.5 0 3.7-1.6 3.7-3.9v-5.2C60 15.4 56 9 46.9 8.8z"/></g></svg>