<?xml version="1.0" encoding="UTF-8"?>
<svg width="50px" height="44px" viewBox="0 0 50 44" version="1.1" xmlns="http://www.w3.org/2000/svg" xmlns:xlink="http://www.w3.org/1999/xlink">
    <!-- Generator: Sketch 48.2 (47327) - http://www.bohemiancoding.com/sketch -->
    <title>005-briefcase</title>
    <desc>Created with Sketch.</desc>
    <defs></defs>
    <g id="Artboard-Copy-4" stroke="none" stroke-width="1" fill="none" fill-rule="evenodd" transform="translate(-155.000000, -618.000000)">
        <g id="траст.-символы" transform="translate(155.000000, 493.000000)" fill="#FFFFFF" fill-rule="nonzero" stroke="#21282B">
            <g id="Group-22" transform="translate(0.000000, 8.000000)">
                <g id="Group-16" transform="translate(1.000000, 118.000000)">
                    <g id="005-briefcase">
                        <path d="M46.9047014,24 C46.2475411,24 45.8094969,24.4235712 45.8094969,25.0587914 L45.8094969,38.8235348 C45.8094969,39.458846 45.3713587,39.8823262 44.7142924,39.8823262 L3.28561344,39.8823262 C2.6284531,39.8823262 2.19040896,39.458755 2.19040896,38.8235348 L2.19040896,25.0587914 C2.19040896,24.4234802 1.7522707,24 1.09520448,24 C0.438138265,24 0,24.4235712 0,25.0587914 L0,38.8235348 C0,40.623553 1.42378465,42 3.28570756,42 L44.7142924,42 C46.5762154,42 48,40.623553 48,38.8235348 L48,25.0587914 C48,24.4234802 47.5618617,24 46.9047014,24 Z" id="Shape"></path>
                        <path d="M44.7272813,8 L3.27271875,8 C1.41815625,8 0,9.42998204 0,11.3000095 L0,18.3400737 C0,19.8799962 1.090875,21.2000378 2.509125,21.5300482 L19.6364063,25.3800435 L19.6364063,28.9000284 C19.6364063,29.5600492 20.0728125,30 20.7272813,30 L27.2727187,30 C27.9272813,30 28.3635937,29.5599546 28.3635937,28.9000284 L28.3635937,25.3800435 L45.490875,21.5300482 C46.909125,21.2000378 48,19.8799962 48,18.3399792 L48,11.2999149 C48,9.42998204 46.5818437,8 44.7272813,8 Z M26.1818437,27.8000567 L21.81825,27.8000567 L21.81825,23.4000756 L26.1818437,23.4000756 L26.1818437,27.8000567 Z M45.8181562,18.3399792 C45.8181562,18.889965 45.490875,19.3300104 44.9454375,19.4399508 L28.3635937,23.1800057 L28.3635937,22.3000095 C28.3635937,21.6399887 27.9271875,21.2000378 27.2727187,21.2000378 L20.7272812,21.2000378 C20.0727187,21.2000378 19.6364062,21.6400832 19.6364062,22.3000095 L19.6364062,23.1800057 L3.0545625,19.4400454 C2.509125,19.3300104 2.18184375,18.8900596 2.18184375,18.3400737 L2.18184375,11.3000095 C2.18184375,10.6399887 2.61825,10.2000378 3.27271875,10.2000378 L44.7272812,10.2000378 C45.3818437,10.2000378 45.8181562,10.6400832 45.8181562,11.3000095 L45.8181562,18.3399792 Z" id="Shape"></path>
                        <path d="M28.8126598,0 L18.1875228,0 C16.3812386,0 15,1.55999381 15,3.60004125 L15,4.80002063 C15,5.5200495 15.4250457,6 16.0624772,6 C16.6999087,6 17.1249543,5.51994637 17.1249543,4.80002063 L17.1249543,3.60004125 C17.1249543,2.88001238 17.55,2.40006188 18.1874315,2.40006188 L28.8125685,2.40006188 C29.4500913,2.40006188 29.8750457,2.8801155 29.8750457,3.60004125 L29.8750457,4.80002063 C29.8750457,5.5200495 30.3000913,6 30.9375228,6 C31.5750457,6 32,5.51994637 32,4.80002063 L32,3.60004125 C32.0001826,1.55999381 30.618944,0 28.8126598,0 Z" id="Shape"></path>
                    </g>
                </g>
            </g>
        </g>
    </g>
</svg>