<svg viewBox="0 0 15 27" xmlns="http://www.w3.org/2000/svg"><path d="M1.447 14.315h2.806v11.282c0 .223.185.403.413.403h4.758c.228 0 .413-.18.413-.403V14.368h3.226a.41.41 0 0 0 .41-.357l.49-4.153a.397.397 0 0 0-.102-.315.417.417 0 0 0-.308-.135H9.837V6.805c0-.785.433-1.183 1.286-1.183h2.43c.228 0 .413-.18.413-.403V1.406a.408.408 0 0 0-.413-.403h-3.348A3.372 3.372 0 0 0 10.05 1c-.58 0-2.6.111-4.195 1.544-1.768 1.589-1.522 3.49-1.463 3.82v3.044H1.447a.408.408 0 0 0-.413.403v4.1c0 .223.185.404.413.404z" fill="#C82636" fill-rule="nonzero" stroke="#F9F9F9"/></svg>