<svg viewBox="0 0 22 22" xmlns="http://www.w3.org/2000/svg"><g fill="#CD2C3C" fill-rule="nonzero"><path d="M15.42 0H6.541A6.55 6.55 0 0 0 0 6.542v8.877a6.55 6.55 0 0 0 6.542 6.543h8.877a6.55 6.55 0 0 0 6.543-6.543V6.542A6.55 6.55 0 0 0 15.419 0zm4.332 15.42a4.333 4.333 0 0 1-4.333 4.332H6.542A4.333 4.333 0 0 1 2.21 15.42V6.542A4.333 4.333 0 0 1 6.542 2.21h8.877a4.333 4.333 0 0 1 4.333 4.333v8.877z"/><path d="M10.98 5.3a5.686 5.686 0 0 0-5.68 5.68 5.686 5.686 0 0 0 5.68 5.68 5.686 5.686 0 0 0 5.68-5.68 5.686 5.686 0 0 0-5.68-5.68zm0 9.151a3.47 3.47 0 1 1 0-6.94 3.47 3.47 0 0 1 0 6.94z"/><circle cx="16.672" cy="5.343" r="1.361"/></g></svg>