<?xml version="1.0" encoding="UTF-8"?>
<svg width="55px" height="46px" viewBox="0 0 55 46" version="1.1" xmlns="http://www.w3.org/2000/svg" xmlns:xlink="http://www.w3.org/1999/xlink">
    <!-- Generator: Sketch 48.2 (47327) - http://www.bohemiancoding.com/sketch -->
    <title>003-like</title>
    <desc>Created with Sketch.</desc>
    <defs></defs>
    <g id="Artboard-Copy-4" stroke="none" stroke-width="1" fill="none" fill-rule="evenodd" transform="translate(-508.000000, -1880.000000)" opacity="0.799999952">
        <g id="003-like" transform="translate(509.000000, 1881.000000)" fill="#C50B1E" fill-rule="nonzero" stroke="#FFFFFF">
            <path d="M48.3391538,15.7023147 L36.6098902,15.7023147 C37.8166765,13.5360589 38.6203726,11.4745104 39.0069004,9.54827429 C39.4994282,7.09430942 39.290844,4.89629561 38.4036107,3.19152737 C37.3678323,1.20114626 35.4367464,0.00807052899 33.2379688,0 C33.2304122,0 33.222959,0 33.2155059,0 C31.7139067,0 30.5923138,0.555294319 29.8821959,1.65037077 C29.3293184,2.50291211 29.1077948,3.54170448 28.8513863,4.74452774 C28.2359853,7.63021351 27.3974044,11.5605611 21.4675059,15.7023147 C20.4928018,15.7024195 18.2452683,15.7025243 16.8123,15.7024195 C16.1714342,13.8726105 14.4455164,12.5580575 12.4213699,12.5580575 L1.55263241,12.5580575 C0.695211633,12.5581624 0,13.2620802 0,14.1302385 L0,42.4279238 C0,43.296187 0.695211633,44 1.55263241,44 L12.4211628,44 C14.4453094,44 16.1711236,42.6855519 16.812093,40.8558477 L18.6273448,40.8558477 C23.841225,42.3234262 29.2448496,44 34.8691697,44 L42.1285207,44 C44.6969529,44 46.7864179,41.8842637 46.7864179,39.2837715 C46.7864179,38.6699921 46.668824,38.083883 46.4571344,37.5454634 C49.1126234,36.8126175 50.5967284,33.8878368 49.5623992,31.257054 C52.8998498,30.3359655 54.1161596,26.1711533 51.8071378,23.5628003 C54.4884022,20.5339412 52.354529,15.7023147 48.3391538,15.7023147 Z M13.9737952,17.2869683 L13.9736917,17.2869683 C13.9736917,17.2875972 13.9737952,17.288226 13.9737952,17.2888549 L13.9737952,39.2837715 C13.9737952,40.1505673 13.2772379,40.8557429 12.4211628,40.8557429 L3.10526483,40.8557429 L3.10526483,15.7023147 L12.4211628,15.7023147 C13.2773414,15.7023147 13.9737952,16.4075951 13.9737952,17.2743908 L13.9737952,17.2869683 Z M40.5758883,25.1349813 L48.3391538,25.1349813 C49.1953324,25.1349813 49.8917863,25.8402616 49.8917863,26.7070574 C49.8917863,27.573958 49.1952289,28.2790288 48.3391538,28.2790288 C47.6343152,28.2790288 41.2966683,28.2790288 40.5758883,28.2790288 C39.718364,28.2790288 39.0232558,28.9829466 39.0232558,29.8511049 C39.0232558,30.7193681 39.7184675,31.4231811 40.5758883,31.4231811 L45.2337855,31.4231811 C46.0899641,31.4231811 46.7864179,32.1284615 46.7864179,32.9952573 C46.7864179,33.8621578 46.0898606,34.5673334 45.2337855,34.5673334 L40.5758883,34.5673334 C39.718364,34.5673334 39.0232558,35.2712512 39.0232558,36.1394096 C39.0232558,37.0075679 39.7184675,37.7114857 40.5758883,37.7114857 L42.1285207,37.7114857 C42.9846993,37.7114857 43.6811531,38.4167661 43.6811531,39.2835619 C43.6811531,40.1503577 42.9845958,40.8556381 42.1285207,40.8556381 L34.8691697,40.8556381 C29.6280648,40.8556381 24.3484521,39.1986641 19.253615,37.7686083 C18.9899604,37.6947158 19.0186343,37.7324481 17.0791636,37.7324481 L17.0791636,18.8257142 C19.4567128,18.825819 21.952477,18.8465718 21.952477,18.8465718 C22.2562957,18.8449996 22.5526612,18.7531843 22.8053431,18.5825502 C30.1317723,13.6370978 31.2302813,8.4858992 31.886571,5.40819773 C32.3699894,3.14132239 32.4513528,3.14195127 33.2264786,3.14425713 C34.2875148,3.14813518 35.1505254,3.68561145 35.6564068,4.65742891 C36.1433448,5.59329584 37.3572737,9.20501478 32.5309564,16.3904059 C31.8311901,17.4320282 32.5698783,18.8466766 33.8147584,18.8466766 L48.3391538,18.8466766 C49.1953324,18.8466766 49.8917863,19.551957 49.8917863,20.4187528 C49.8917863,21.2856534 49.1952289,21.9908289 48.3391538,21.9908289 L40.5758883,21.9908289 C39.718364,21.9908289 39.0232558,22.6947468 39.0232558,23.5629051 C39.0232558,24.4311682 39.718364,25.1349813 40.5758883,25.1349813 Z" id="Shape"></path>
            <circle id="Oval" cx="9.5" cy="35.5" r="1.5"></circle>
        </g>
    </g>
</svg>