<?xml version="1.0" encoding="UTF-8"?>
<svg width="54px" height="54px" viewBox="0 0 54 54" version="1.1" xmlns="http://www.w3.org/2000/svg" xmlns:xlink="http://www.w3.org/1999/xlink">
    <!-- Generator: Sketch 48.2 (47327) - http://www.bohemiancoding.com/sketch -->
    <title>Shape</title>
    <desc>Created with Sketch.</desc>
    <defs></defs>
    <g id="Artboard-Copy-4" stroke="none" stroke-width="1" fill="none" fill-rule="evenodd" transform="translate(-154.000000, -2068.000000)" opacity="0.799999952">
        <g id="006-contract" transform="translate(155.000000, 2069.000000)" fill="#C50B1E" fill-rule="nonzero" stroke="#FFFFFF">
            <path d="M50.6602072,16.3644609 C48.8781674,14.5824453 45.978455,14.5825469 44.1958058,16.3648672 C43.6475327,16.9136094 40.1469342,20.4168047 39.6121699,20.9520391 L39.6121699,8.87920313 C39.6121699,7.65842188 39.1367223,6.51076562 38.2733801,5.64758594 L33.964287,1.33859375 C33.1010464,0.4753125 31.9532076,0 30.7323402,0 L4.57063499,0 C2.05038686,0 0,2.05024219 0,4.5703125 L0,47.4296875 C0,49.9497578 2.05038686,52 4.57063499,52 L35.0415349,52 C37.561783,52 39.6121699,49.9497578 39.6121699,47.4296875 L39.6121699,33.8843984 L50.6601057,22.8278984 C52.4464114,21.0418203 52.4468177,18.1507422 50.6602072,16.3644609 Z M30.4710015,3.046875 C30.7588499,3.046875 31.3135219,2.99700781 31.8096897,3.49303906 L36.1188844,7.80203125 C36.602356,8.28557031 36.5651815,8.81542188 36.5651815,9.140625 L30.4710015,9.140625 L30.4710015,3.046875 Z M36.5650799,47.4296875 C36.5650799,48.2697109 35.8817192,48.953125 35.0415349,48.953125 L4.57063499,48.953125 C3.73055228,48.953125 3.04708999,48.2697109 3.04708999,47.4296875 L3.04708999,4.5703125 C3.04708999,3.73028906 3.73055228,3.046875 4.57063499,3.046875 L27.4238099,3.046875 L27.4238099,10.6640625 C27.4238099,11.5054062 28.1059518,12.1875 28.9473549,12.1875 L36.5650799,12.1875 L36.5650799,24.0015547 C36.5650799,24.0015547 32.0702159,28.4999609 32.0700127,28.5000625 L29.9164311,30.6535937 C29.7492474,30.8207656 29.6230979,31.0247031 29.5483426,31.2490547 L27.3936437,37.7124922 C27.211123,38.2599141 27.3536253,38.8635 27.7617322,39.2714766 C28.170347,39.6800625 28.7741786,39.8218437 29.3208266,39.6395391 L35.7847202,37.4850937 C36.0090876,37.4103437 36.2130394,37.2843047 36.3802231,37.1170312 L36.5650799,36.9321875 L36.5650799,47.4296875 Z M33.1482763,31.7308672 L35.3028737,33.8853125 L34.4798547,34.7082734 L31.2480094,35.7854453 L32.3252573,32.5537266 L33.1482763,31.7308672 Z M37.4570647,31.7303594 L35.3024674,29.5759141 C36.4497983,28.42775 41.5454469,23.3280938 42.6261482,22.2465547 L44.7807455,24.401 L37.4570647,31.7303594 Z M48.505102,20.6738594 L46.9345303,22.2456406 L44.779933,20.0911953 L46.3510126,18.5189063 C46.9453982,17.9248672 47.911732,17.9249688 48.5057115,18.5189063 C49.0995893,19.1130469 49.102738,20.0761641 48.505102,20.6738594 Z" id="Shape"></path>
        </g>
    </g>
</svg>