<svg viewBox="0 0 37 22" xmlns="http://www.w3.org/2000/svg"><path d="M31.064 13.715c1.159 1.143 2.381 2.219 3.42 3.478.46.56.894 1.137 1.227 1.786.471.923.044 1.938-.774 1.993l-5.09-.002c-1.312.11-2.359-.424-3.24-1.331-.704-.726-1.356-1.498-2.034-2.248-.278-.306-.568-.594-.916-.822-.694-.456-1.297-.317-1.694.416-.405.745-.496 1.57-.536 2.4-.055 1.211-.417 1.53-1.62 1.585-2.573.123-5.014-.27-7.282-1.583-2-1.156-3.55-2.789-4.9-4.637-2.628-3.599-4.64-7.553-6.449-11.619-.407-.916-.109-1.407.89-1.425 1.661-.032 3.32-.03 4.983-.002.675.01 1.121.401 1.382 1.045.898 2.233 1.997 4.357 3.377 6.326.367.524.742 1.048 1.275 1.417.59.408 1.04.273 1.317-.392.177-.42.254-.875.293-1.326.132-1.553.15-3.103-.081-4.65-.142-.965-.68-1.59-1.633-1.773-.487-.093-.414-.276-.179-.557.41-.484.794-.785 1.56-.785h5.752c.906.18 1.107.592 1.23 1.512l.006 6.458c-.01.357.176 1.415.811 1.65.508.169.844-.243 1.149-.568 1.377-1.478 2.36-3.224 3.237-5.032.39-.795.725-1.62 1.05-2.445.24-.612.618-.913 1.3-.9l5.535.005c.164 0 .33.003.49.03.932.16 1.188.566.9 1.487-.454 1.444-1.337 2.648-2.2 3.858-.924 1.29-1.911 2.538-2.827 3.836-.84 1.187-.774 1.784.27 2.815z" fill="#CD2C3C" fill-rule="nonzero" stroke="#F9F9F9"/></svg>