<?xml version="1.0" encoding="UTF-8"?>
<svg width="46px" height="52px" viewBox="0 0 46 52" version="1.1" xmlns="http://www.w3.org/2000/svg" xmlns:xlink="http://www.w3.org/1999/xlink">
    <!-- Generator: Sketch 48.2 (47327) - http://www.bohemiancoding.com/sketch -->
    <title>001-wallet</title>
    <desc>Created with Sketch.</desc>
    <defs></defs>
    <g id="Artboard-Copy-4" stroke="none" stroke-width="1" fill="none" fill-rule="evenodd" transform="translate(-854.000000, -2069.000000)" fill-opacity="0.799999952">
        <g id="001-wallet" transform="translate(854.000000, 2069.000000)" fill="#C50B1E" fill-rule="nonzero">
            <path d="M43.5940421,8.95597998 L27.6557579,0.359725256 C26.1438258,-0.455977747 24.0649192,0.171486102 23.245956,1.67739934 L13.9223747,18.9326552 L2.582884,18.9326552 C1.13394907,18.9326552 0,20.0620901 0,21.505257 L0,26.0229967 L0,49.4273982 C0,50.8705651 1.13394907,52 2.582884,52 L38.8062572,52 C40.2551921,52 41.3891412,50.8705651 41.3891412,49.4273982 L41.3891412,42.9017742 L42.4600931,42.9017742 C43.0270676,42.9017742 43.4680478,42.4625495 43.4680478,41.897832 L43.4680478,34.4310122 C43.4680478,33.8662948 43.0270676,33.4270701 42.4600931,33.4270701 L41.3891412,33.4270701 L41.3891412,26.0857431 C41.3891412,24.8935617 40.5071808,23.8268732 39.3732317,23.5758877 L44.9169827,13.3482269 C45.7359459,11.7795673 45.1689714,9.83442937 43.5940421,8.95597998 Z M32.2545514,5.12845051 L22.3009984,23.5131413 L19.4661258,23.5131413 L30.1126476,3.99901558 L32.2545514,5.12845051 Z M25.0728739,2.61859511 C25.3878598,2.05387765 26.1438258,1.80289211 26.7108004,2.11662403 L28.2857297,2.99507342 L17.1982276,23.5131413 L13.7333832,23.5131413 L25.0728739,2.61859511 Z M1.95291229,21.4425106 C1.95291229,21.2542714 2.20490098,20.9405395 2.51988683,20.9405395 L12.7884257,20.9405395 L11.4024879,23.4503949 L2.51988683,23.4503949 C2.33089532,23.4503949 2.1419038,23.4503949 1.95291229,23.5131413 L1.95291229,21.4425106 Z M39.3102345,49.4273982 C39.3102345,49.7411301 39.0582458,49.9921157 38.74326,49.9921157 L2.51988683,49.9921157 C2.20490098,49.9921157 1.95291229,49.7411301 1.95291229,49.4273982 L1.95291229,26.0857431 C1.95291229,25.7720111 2.20490098,25.5210256 2.51988683,25.5210256 L12.0324596,25.5210256 L16.0642785,25.5210256 L23.4349475,25.5210256 L37.6093109,25.5210256 L38.6802628,25.5210256 C38.9952487,25.5210256 39.2472374,25.7720111 39.2472374,26.0857431 L39.2472374,33.4270701 L35.4044099,33.4270701 C33.7034863,33.4270701 32.3805457,34.8074905 32.3805457,36.4388966 L32.3805457,39.8899477 C32.3805457,41.5841001 33.7664835,42.9017742 35.4044099,42.9017742 L39.3102345,42.9017742 L39.3102345,49.4273982 Z M41.326144,35.4349544 L41.3891412,35.4349544 L41.3891412,40.8938899 L41.326144,40.8938899 L35.4044099,40.8938899 C34.8374354,40.8938899 34.3964552,40.4546652 34.3964552,39.8899477 L34.3964552,36.4388966 C34.3964552,35.8741791 34.8374354,35.4349544 35.4044099,35.4349544 L41.326144,35.4349544 Z M43.0900648,12.3442848 L37.0423364,23.5131413 L24.5688966,23.5131413 L34.0184722,6.13239266 L42.5860874,10.7756251 C43.2160591,11.0266107 43.4050506,11.7795673 43.0900648,12.3442848 Z" id="Shape"></path>
            <path d="M39.6498455,11.4601637 L39.1308872,11.2115682 C37.8334915,10.5279304 36.0820074,11.0251215 35.3684398,12.2680992 L34.7197419,13.448928 C34.395393,14.0704168 34.2656534,14.8162034 34.5251326,15.4998412 C34.7197419,16.1834789 35.2387002,16.7428188 35.887398,17.0535633 L36.4063563,17.3021588 C36.795575,17.4886055 37.2496635,17.6129032 37.703752,17.6129032 C38.7416685,17.6129032 39.6498455,17.0535633 40.1688037,16.2456278 L40.8175016,15.064799 C41.4661994,13.7596724 40.9472411,12.1438014 39.6498455,11.4601637 Z M38.5305918,13.7442489 L37.8926517,14.7970332 C37.7012697,15.0740817 37.2547116,15.1849011 36.9357416,15.018672 L36.4253895,14.7416235 C36.2978015,14.6862138 36.1702135,14.5199847 36.1064195,14.4091653 C36.0426255,14.2429362 36.0426255,14.0767071 36.1702135,13.9658877 L36.8081536,12.9131034 C36.9357416,12.7468743 37.1909176,12.5806452 37.4460936,12.5806452 C37.5736817,12.5806452 37.6374757,12.5806452 37.7650637,12.6360549 L38.2754157,12.8576937 C38.5305918,13.0793325 38.6581798,13.4117907 38.5305918,13.7442489 Z" id="Shape"></path>
        </g>
    </g>
</svg>