<?xml version="1.0" encoding="UTF-8"?>
<svg width="61px" height="32px" viewBox="0 0 61 32" version="1.1" xmlns="http://www.w3.org/2000/svg" xmlns:xlink="http://www.w3.org/1999/xlink">
    <!-- Generator: Sketch 48.2 (47327) - http://www.bohemiancoding.com/sketch -->
    <title>123333</title>
    <desc>Created with Sketch.</desc>
    <defs></defs>
    <g id="Artboard-Copy-4" stroke="none" stroke-width="1" fill="none" fill-rule="evenodd" transform="translate(-854.000000, -522.000000)">
        <g id="123333" transform="translate(855.000000, 523.000000)" fill="#FFFFFF" fill-rule="nonzero" stroke="#000C14">
            <path d="M37.7,8.7 L26.5,8.7 L26.5,5.2 C26.5,4.6 25.9,4 25.2,4 C24.5,4 24,4.5 24,5.2 L24,9.9 C24,10.5 24.6,11.1 25.3,11.1 L37.8,11.1 C38.5,11.1 39.1,10.6 39.1,9.9 C39,9.2 38.4,8.7 37.7,8.7 Z" id="Shape"></path>
            <path d="M46.5,15 C42.4,15 39,18.4 39,22.5 C39,26.6 42.4,30 46.5,30 C50.6,30 54,26.6 54,22.5 C54,18.4 50.6,15 46.5,15 Z M46.5,27.5 C43.7,27.5 41.5,25.3 41.5,22.5 C41.5,19.7 43.7,17.5 46.5,17.5 C49.3,17.5 51.5,19.7 51.5,22.5 C51.5,25.3 49.3,27.5 46.5,27.5 Z" id="Shape_1_"></path>
            <path d="M10.5,15 C6.4,15 3,18.4 3,22.5 C3,26.6 6.4,30 10.5,30 C14.6,30 18,26.6 18,22.5 C18,18.4 14.6,15 10.5,15 Z M10.5,27.5 C7.7,27.5 5.5,25.3 5.5,22.5 C5.5,19.7 7.7,17.5 10.5,17.5 C13.3,17.5 15.5,19.7 15.5,22.5 C15.5,25.3 13.3,27.5 10.5,27.5 Z" id="Shape_2_"></path>
            <path d="M40.8,23 L16.2,23 C15.5,23 15,23.7 15,24.5 C15,25.3 15.5,26 16.2,26 L40.7,26 C41.4,26 41.9,25.3 41.9,24.5 C41.9,23.7 41.5,23 40.8,23 Z" id="Shape_3_"></path>
            <path d="M45.9,7.8 C44.1,6.3 35.9,0 23.4,0 C21,0 14.9,0.3 9.5,2.6 L3.7,2.6 C3.2,2.6 2.8,2.9 2.6,3.4 C2.4,3.9 2.5,4.4 2.9,4.8 L4,6.1 C1.3,8.6 0,11.8 0,15.6 C0,20.1 0.4,26 3.7,26 C4.4,26 4.9,25.4 4.9,24.7 C4.9,24 4.3,23.4 3.7,23.4 C3.7,23.4 2.5,22.7 2.5,15.6 C2.5,12.1 3.8,9.4 6.6,7.2 C6.9,7 7,6.7 7.1,6.3 C7.1,5.9 6.7,5.2 6.7,5.2 L9.7,5.2 C9.9,5.2 10,5.2 10.2,5.1 C15.3,2.8 21.1,2.6 23.4,2.6 C36.4,2.6 44.6,10 44.7,10.1 C44.9,10.3 45.2,10.4 45.5,10.4 C53.5,10.4 56.5,15.8 56.6,16.9 L56.6,22.1 C56.6,22.8 55.7,23.4 55.4,23.4 L52.9,23.4 C52.2,23.4 51.7,24 51.7,24.7 C51.7,25.4 52.3,26 52.9,26 L55.4,26 C56.9,26 59.1,24.4 59.1,22.1 L59.1,16.9 C59,14.4 55,8 45.9,7.8 Z" id="Shape_4_"></path>
        </g>
    </g>
</svg>