<?xml version="1.0" encoding="UTF-8"?>
<svg width="61px" height="32px" viewBox="0 0 61 32" version="1.1" xmlns="http://www.w3.org/2000/svg" xmlns:xlink="http://www.w3.org/1999/xlink">
    <!-- Generator: Sketch 48.2 (47327) - http://www.bohemiancoding.com/sketch -->
    <title>005-car</title>
    <desc>Created with Sketch.</desc>
    <defs></defs>
    <g id="Artboard-Copy-4" stroke="none" stroke-width="1" fill="none" fill-rule="evenodd" transform="translate(-854.000000, -522.000000)">
        <g id="траст.-символы" transform="translate(155.000000, 493.000000)" fill="#FFFFFF" fill-rule="nonzero" stroke="#02141E" stroke-width="1.5">
            <g id="Group-13" transform="translate(337.000000, 0.000000)">
                <g id="Group-26" transform="translate(363.000000, 22.000000)">
                    <g id="Group-15">
                        <g id="005-car" transform="translate(0.000000, 8.000000)">
                            <path d="M37.7499707,8.66663021 L26.5000586,8.66663021 L26.5000586,5.1666849 C26.5000586,4.52269496 25.9400239,4 25.2500293,4 C24.5600347,4 24,4.52269496 24,5.1666849 L24,9.8333151 C24,10.477305 24.5600347,11 25.2500293,11 L37.7499707,11 C38.4399653,11 39,10.477305 39,9.8333151 C39,9.18932517 38.4399653,8.66663021 37.7499707,8.66663021 Z" id="Shape"></path>
                            <path d="M46.5,15 C42.3650391,15 39,18.3650391 39,22.5 C39,26.6349609 42.3650391,30 46.5,30 C50.6349609,30 54,26.6349609 54,22.5 C54,18.3650391 50.6350781,15 46.5,15 Z M46.5,27.5000391 C43.7424609,27.5000391 41.4999609,25.2575391 41.4999609,22.5 C41.4999609,19.7424609 43.7424609,17.4999609 46.5,17.4999609 C49.2575391,17.4999609 51.5000391,19.7424609 51.5000391,22.5 C51.5000391,25.2575391 49.2575391,27.5000391 46.5,27.5000391 Z" id="Shape"></path>
                            <path d="M10.5,15 C6.36503906,15 3,18.3650391 3,22.5 C3,26.6349609 6.36503906,30 10.5,30 C14.6349609,30 18,26.6349609 18,22.5 C18,18.3650391 14.6350781,15 10.5,15 Z M10.5,27.5000391 C7.74246094,27.5000391 5.49996094,25.2575391 5.49996094,22.5 C5.49996094,19.7424609 7.74246094,17.4999609 10.5,17.4999609 C13.2575391,17.4999609 15.5000391,19.7424609 15.5000391,22.5 C15.5000391,25.2575391 13.2575391,27.5000391 10.5,27.5000391 Z" id="Shape"></path>
                            <path d="M40.7726907,23 L16.2273093,23 C15.5498558,23 15,23.6720259 15,24.5 C15,25.3279741 15.5498558,26 16.2273093,26 L40.7726907,26 C41.4501442,26 42,25.3279741 42,24.5 C42,23.6720259 41.4501442,23 40.7726907,23 Z" id="Shape"></path>
                            <path d="M45.9265449,7.80521623 C44.1270449,6.28678035 35.908875,0 23.3542051,0 C20.9794551,0 14.919625,0.257399196 9.45970508,2.59995125 L3.6875,2.59995125 C3.19095508,2.59995125 2.74108008,2.91719088 2.55175,3.40334874 C2.36,3.8895066 2.46566992,4.44598611 2.81725,4.82038494 L4.019375,6.0892216 C1.349625,8.62153243 0,11.8144037 0,15.5999513 C0,20.0640967 0.381080078,25.9998781 3.6875,25.9998781 C4.366,25.9998781 4.91670508,25.4174393 4.91670508,24.6998416 C4.91670508,23.9822438 4.366,23.3999269 3.6875,23.3999269 C3.67770508,23.3973675 2.45829492,22.6797698 2.45829492,15.5999513 C2.45829492,12.144562 3.80791992,9.40932997 6.58091992,7.2305774 C6.86854492,7.00437811 7.04796484,6.65861982 7.07504492,6.28153975 C7.102125,5.90458155 6.97179492,5.53530145 6.718625,5.26754291 L6.65466992,5.1999025 L9.70296484,5.1999025 C9.86521484,5.1999025 10.0274648,5.16614323 10.1749648,5.09850282 C15.2858398,2.84430986 21.0949199,2.59995125 23.3540898,2.59995125 C36.3685449,2.59995125 44.5916699,10.0073687 44.6727949,10.0801279 C44.8964648,10.2854866 45.1816699,10.3999269 45.4790898,10.3999269 C53.4514648,10.3999269 56.5244199,15.79751 56.5415898,16.8998659 L56.5415898,22.0998903 C56.5415898,22.7784882 55.5951699,23.3660457 55.3123848,23.3999269 L52.8540898,23.3999269 C52.1755898,23.3999269 51.6248848,23.9823657 51.6248848,24.6999634 C51.6248848,25.4175612 52.1755898,26 52.8540898,26 L55.3125,26 C56.7972949,26 59,24.3620051 59,22.1000122 L59,16.8999878 C59,14.4351955 54.9756699,8.01057497 45.9265449,7.80521623 Z" id="Shape"></path>
                        </g>
                    </g>
                </g>
            </g>
        </g>
    </g>
</svg>