<?xml version="1.0" encoding="UTF-8"?>
<svg width="45px" height="45px" viewBox="0 0 45 45" version="1.1" xmlns="http://www.w3.org/2000/svg" xmlns:xlink="http://www.w3.org/1999/xlink">
    <!-- Generator: Sketch 48.2 (47327) - http://www.bohemiancoding.com/sketch -->
    <title>noun_730835_cc</title>
    <desc>Created with Sketch.</desc>
    <defs></defs>
    <g id="Artboard-Copy-4" stroke="none" stroke-width="1" fill="none" fill-rule="evenodd" transform="translate(-855.000000, -616.000000)">
        <g id="траст.-символы" transform="translate(155.000000, 493.000000)" fill="#FFFFFF" fill-rule="nonzero">
            <g id="Group-13" transform="translate(337.000000, 0.000000)">
                <g id="Group-26" transform="translate(363.000000, 22.000000)">
                    <g id="Group-19" transform="translate(0.000000, 101.000000)">
                        <g id="noun_730835_cc">
                            <g id="Group">
                                <path d="M8.64396598,17.2812945 L28.6145503,17.2812945 C28.9392753,17.2812945 29.1557586,17.0720237 29.1557586,16.7581176 C29.1557586,16.4442115 28.9392753,16.2349408 28.6145503,16.2349408 L8.64396598,16.2349408 C8.31924103,16.2349408 8.10275774,16.4442115 8.10275774,16.7581176 C8.10275774,17.0720237 8.37336186,17.2812945 8.64396598,17.2812945 Z" id="Shape"></path>
                                <path d="M8.64396598,21.9375682 L28.6145503,21.9375682 C28.9392753,21.9375682 29.1557586,21.7282975 29.1557586,21.4143914 C29.1557586,21.1004853 28.9392753,20.8912146 28.6145503,20.8912146 L8.64396598,20.8912146 C8.31924103,20.8912146 8.10275774,21.1004853 8.10275774,21.4143914 C8.10275774,21.7282975 8.37336186,21.9375682 8.64396598,21.9375682 Z" id="Shape"></path>
                                <path d="M22.3365347,25.5474883 L8.64396598,25.5474883 C8.31924103,25.5474883 8.10275774,25.756759 8.10275774,26.0706651 C8.10275774,26.3845712 8.31924103,26.593842 8.64396598,26.593842 L22.2824138,26.593842 C22.6071388,26.593842 22.8236221,26.3845712 22.8236221,26.0706651 C22.8236221,25.756759 22.6071388,25.5474883 22.3365347,25.5474883 Z" id="Shape"></path>
                                <path d="M22.3365347,30.2037621 L8.64396598,30.2037621 C8.31924103,30.2037621 8.10275774,30.4130328 8.10275774,30.7269389 C8.10275774,31.040845 8.31924103,31.2501157 8.64396598,31.2501157 L22.2824138,31.2501157 C22.6071388,31.2501157 22.8236221,31.040845 22.8236221,30.7269389 C22.8236221,30.4130328 22.6071388,30.2037621 22.3365347,30.2037621 Z" id="Shape"></path>
                                <path d="M22.3365347,34.8600358 L8.64396598,34.8600358 C8.31924103,34.8600358 8.10275774,35.0693065 8.10275774,35.3832126 C8.10275774,35.6971187 8.31924103,35.9063895 8.64396598,35.9063895 L22.2824138,35.9063895 C22.6071388,35.9063895 22.8236221,35.6971187 22.8236221,35.3832126 C22.8236221,35.0693065 22.6071388,34.8600358 22.3365347,34.8600358 Z" id="Shape"></path>
                                <path d="M41.982394,27.0647011 C40.5211318,25.6521237 38.6269029,24.8673584 36.6785532,24.7627231 L36.6785532,0.853542142 C36.6785532,0.539636046 36.4620699,0.330365316 36.137345,0.330365316 L11.7829738,0.330365316 C11.7829738,0.330365316 11.7829738,0.330365316 11.728853,0.330365316 C11.6747322,0.330365316 11.6206113,0.330365316 11.5664905,0.382682999 C11.5664905,0.382682999 11.5123697,0.382682999 11.5123697,0.382682999 C11.4582489,0.382682999 11.404128,0.435000681 11.3500072,0.487318364 C11.3500072,0.487318364 11.3500072,0.487318364 11.3500072,0.487318364 L0.742325565,10.7939018 C0.742325565,10.7939018 0.742325565,10.7939018 0.742325565,10.7939018 C0.688204741,10.8462195 0.688204741,10.8985372 0.634083916,10.9508549 C0.634083916,10.9508549 0.634083916,11.0031726 0.634083916,11.0031726 C0.634083916,11.0554902 0.634083916,11.1078079 0.579963091,11.1601256 C0.579963091,11.1601256 0.579963091,11.1601256 0.579963091,11.2124433 L0.579963091,44.3295364 C0.579963091,44.6434424 0.79644639,44.8527132 1.12117134,44.8527132 L36.1914658,44.8527132 C36.5161907,44.8527132 36.732674,44.6434424 36.732674,44.3295364 L36.732674,40.7196163 C38.6810237,40.6149809 40.5752526,39.8302157 42.0365149,38.4176382 C45.2296435,35.2262596 45.2296435,30.1514444 41.982394,27.0647011 Z M11.2417656,2.10916652 L11.2417656,10.6369488 L2.42007113,10.6369488 L11.2417656,2.10916652 Z M35.5961367,43.7540418 L1.66237959,43.7540418 L1.66237959,11.6833024 L11.7829738,11.6833024 C12.1076988,11.6833024 12.3241821,11.4740317 12.3241821,11.1601256 L12.3241821,1.37671897 L35.5961367,1.37671897 L35.5961367,24.7104054 C33.647787,24.8150408 31.7535582,25.599806 30.2922959,27.0123834 C27.0450464,30.1514444 27.0450464,35.1739419 30.2922959,38.3130029 C31.7535582,39.7255803 33.647787,40.5103455 35.5961367,40.6149809 L35.5961367,43.7540418 Z M41.2247025,37.5805553 C39.8716819,38.8884974 38.0856947,39.6209449 36.137345,39.6209449 C34.1889953,39.6209449 32.4030081,38.8884974 31.0499874,37.5805553 C29.6969668,36.2726132 28.9392753,34.5461297 28.9392753,32.6626931 C28.9392753,30.7792566 29.6969668,29.052773 31.0499874,27.744831 C32.4030081,26.4368889 34.1889953,25.7044414 36.137345,25.7044414 C38.0315738,25.7044414 39.8716819,26.4368889 41.2247025,27.744831 C42.5777231,29.052773 43.3354147,30.7792566 43.3354147,32.6626931 C43.3354147,34.5461297 42.5777231,36.2726132 41.2247025,37.5805553 Z" id="Shape"></path>
                                <path d="M39.2763528,30.2037621 L35.2714118,34.9646712 L32.9983371,32.7673285 C32.7818538,32.5580578 32.4571289,32.5580578 32.2406456,32.7673285 C32.0241623,32.9765992 32.0241623,33.2905053 32.2406456,33.4997761 L34.9466868,36.1156602 C34.9466868,36.1156602 34.9466868,36.1156602 34.9466868,36.1156602 C34.9466868,36.1156602 34.9466868,36.1156602 34.9466868,36.1156602 C35.0008077,36.1156602 35.0008077,36.1679779 35.0549285,36.1679779 C35.0549285,36.1679779 35.1090493,36.1679779 35.1090493,36.2202956 C35.1631701,36.2202956 35.2172909,36.2726132 35.3255326,36.2726132 C35.3255326,36.2726132 35.3255326,36.2726132 35.3255326,36.2726132 C35.3255326,36.2726132 35.3255326,36.2726132 35.3255326,36.2726132 C35.3796534,36.2726132 35.4878951,36.2726132 35.5420159,36.2202956 C35.5420159,36.2202956 35.5961367,36.1679779 35.5961367,36.1679779 C35.6502575,36.1679779 35.6502575,36.1156602 35.7043784,36.1156602 C35.7043784,36.1156602 35.7043784,36.1156602 35.7043784,36.1156602 C35.7043784,36.1156602 35.7043784,36.1156602 35.7043784,36.1156602 L40.0881652,30.8838919 C40.2505277,30.6746212 40.2505277,30.3083974 39.9799235,30.1514444 C39.8175611,29.9421736 39.4387153,29.9421736 39.2763528,30.2037621 Z" id="Shape"></path>
                            </g>
                        </g>
                    </g>
                </g>
            </g>
        </g>
    </g>
</svg>