<?xml version="1.0" encoding="UTF-8"?>
<svg width="49px" height="49px" viewBox="0 0 49 49" version="1.1" xmlns="http://www.w3.org/2000/svg" xmlns:xlink="http://www.w3.org/1999/xlink">
    <!-- Generator: Sketch 48.2 (47327) - http://www.bohemiancoding.com/sketch -->
    <title>noun_730835_cc</title>
    <desc>Created with Sketch.</desc>
    <defs></defs>
    <g id="Artboard-Copy-4" stroke="none" stroke-width="1" fill="none" fill-rule="evenodd" transform="translate(-855.000000, -612.000000)">
        <g id="траст.-символы" transform="translate(155.000000, 493.000000)" fill="#FFFFFF" fill-rule="nonzero">
            <g id="Group-13" transform="translate(337.000000, 0.000000)">
                <g id="Group-26" transform="translate(363.000000, 22.000000)">
                    <g id="Group-19" transform="translate(0.000000, 97.000000)">
                        <g id="noun_730835_cc">
                            <g id="Group">
                                <path d="M9.41231851,18.8174095 L31.1580659,18.8174095 C31.5116553,18.8174095 31.7473816,18.589537 31.7473816,18.2477281 C31.7473816,17.9059192 31.5116553,17.6780467 31.1580659,17.6780467 L9.41231851,17.6780467 C9.05872913,17.6780467 8.82300287,17.9059192 8.82300287,18.2477281 C8.82300287,18.589537 9.11766069,18.8174095 9.41231851,18.8174095 Z" id="Shape"></path>
                                <path d="M9.41231851,23.8875743 L31.1580659,23.8875743 C31.5116553,23.8875743 31.7473816,23.6597017 31.7473816,23.3178928 C31.7473816,22.976084 31.5116553,22.7482114 31.1580659,22.7482114 L9.41231851,22.7482114 C9.05872913,22.7482114 8.82300287,22.976084 8.82300287,23.3178928 C8.82300287,23.6597017 9.11766069,23.8875743 9.41231851,23.8875743 Z" id="Shape"></path>
                                <path d="M24.3220044,27.8183762 L9.41231851,27.8183762 C9.05872913,27.8183762 8.82300287,28.0462487 8.82300287,28.3880576 C8.82300287,28.7298665 9.05872913,28.957739 9.41231851,28.957739 L24.2630728,28.957739 C24.6166622,28.957739 24.8523885,28.7298665 24.8523885,28.3880576 C24.8523885,28.0462487 24.6166622,27.8183762 24.3220044,27.8183762 Z" id="Shape"></path>
                                <path d="M24.3220044,32.8885409 L9.41231851,32.8885409 C9.05872913,32.8885409 8.82300287,33.1164135 8.82300287,33.4582223 C8.82300287,33.8000312 9.05872913,34.0279038 9.41231851,34.0279038 L24.2630728,34.0279038 C24.6166622,34.0279038 24.8523885,33.8000312 24.8523885,33.4582223 C24.8523885,33.1164135 24.6166622,32.8885409 24.3220044,32.8885409 Z" id="Shape"></path>
                                <path d="M24.3220044,37.9587057 L9.41231851,37.9587057 C9.05872913,37.9587057 8.82300287,38.1865782 8.82300287,38.5283871 C8.82300287,38.8701959 9.05872913,39.0980685 9.41231851,39.0980685 L24.2630728,39.0980685 C24.6166622,39.0980685 24.8523885,38.8701959 24.8523885,38.5283871 C24.8523885,38.1865782 24.6166622,37.9587057 24.3220044,37.9587057 Z" id="Shape"></path>
                                <path d="M45.7141624,29.4704523 C44.1230102,27.9323124 42.0604054,27.0777903 39.9388691,26.963854 L39.9388691,0.929412554 C39.9388691,0.587603695 39.7031428,0.359731122 39.3495534,0.359731122 L12.8303493,0.359731122 C12.8303493,0.359731122 12.8303493,0.359731122 12.7714177,0.359731122 C12.7124861,0.359731122 12.6535546,0.359731122 12.594623,0.416699265 C12.594623,0.416699265 12.5356914,0.416699265 12.5356914,0.416699265 C12.4767599,0.416699265 12.4178283,0.473667408 12.3588968,0.530635552 C12.3588968,0.530635552 12.3588968,0.530635552 12.3588968,0.530635552 L0.80831006,11.7533598 C0.80831006,11.7533598 0.80831006,11.7533598 0.80831006,11.7533598 C0.749378495,11.8103279 0.749378495,11.8672961 0.690446931,11.9242642 C0.690446931,11.9242642 0.690446931,11.9812323 0.690446931,11.9812323 C0.690446931,12.0382005 0.690446931,12.0951686 0.631515366,12.1521368 C0.631515366,12.1521368 0.631515366,12.1521368 0.631515366,12.2091049 L0.631515366,48.2699396 C0.631515366,48.6117484 0.867241625,48.839621 1.22083101,48.839621 L39.408485,48.839621 C39.7620744,48.839621 39.9978006,48.6117484 39.9978006,48.2699396 L39.9978006,44.3391377 C42.119337,44.2252014 44.1819417,43.3706793 45.773094,41.8325394 C49.2500563,38.3574827 49.2500563,32.8315728 45.7141624,29.4704523 Z M12.2410336,2.29664799 L12.2410336,11.5824553 L2.63518857,11.5824553 L12.2410336,2.29664799 Z M38.7602378,47.64329 L1.81014666,47.64329 L1.81014666,12.7218182 L12.8303493,12.7218182 C13.1839387,12.7218182 13.4196649,12.4939456 13.4196649,12.1521368 L13.4196649,1.49909399 L38.7602378,1.49909399 L38.7602378,26.9068859 C36.6387014,27.0208222 34.5760967,27.8753443 32.9849444,29.4134842 C29.4490505,32.8315728 29.4490505,38.3005145 32.9849444,41.7186031 C34.5760967,43.256743 36.6387014,44.1112651 38.7602378,44.2252014 L38.7602378,47.64329 Z M44.8891205,40.9210491 C43.4158314,42.3452527 41.4710897,43.1428067 39.3495534,43.1428067 C37.2280171,43.1428067 35.2832754,42.3452527 33.8099863,40.9210491 C32.3366972,39.4968455 31.5116553,37.6168968 31.5116553,35.5660436 C31.5116553,33.5151905 32.3366972,31.6352418 33.8099863,30.2110382 C35.2832754,28.7868346 37.2280171,27.9892806 39.3495534,27.9892806 C41.4121582,27.9892806 43.4158314,28.7868346 44.8891205,30.2110382 C46.3624096,31.6352418 47.1874515,33.5151905 47.1874515,35.5660436 C47.1874515,37.6168968 46.3624096,39.4968455 44.8891205,40.9210491 Z" id="Shape"></path>
                                <path d="M42.7675842,32.8885409 L38.4066484,38.0726419 L35.9315227,35.6799799 C35.6957964,35.4521074 35.342207,35.4521074 35.1064807,35.6799799 C34.8707545,35.9078525 34.8707545,36.2496614 35.1064807,36.4775339 L38.053059,39.3259411 C38.053059,39.3259411 38.053059,39.3259411 38.053059,39.3259411 C38.053059,39.3259411 38.053059,39.3259411 38.053059,39.3259411 C38.1119906,39.3259411 38.1119906,39.3829092 38.1709221,39.3829092 C38.1709221,39.3829092 38.2298537,39.3829092 38.2298537,39.4398774 C38.2887852,39.4398774 38.3477168,39.4968455 38.4655799,39.4968455 C38.4655799,39.4968455 38.4655799,39.4968455 38.4655799,39.4968455 C38.4655799,39.4968455 38.4655799,39.4968455 38.4655799,39.4968455 C38.5245115,39.4968455 38.6423746,39.4968455 38.7013062,39.4398774 C38.7013062,39.4398774 38.7602378,39.3829092 38.7602378,39.3829092 C38.8191693,39.3829092 38.8191693,39.3259411 38.8781009,39.3259411 C38.8781009,39.3259411 38.8781009,39.3259411 38.8781009,39.3259411 C38.8781009,39.3259411 38.8781009,39.3259411 38.8781009,39.3259411 L43.6515576,33.6291268 C43.8283523,33.4012542 43.8283523,33.0024772 43.5336945,32.8315728 C43.3568998,32.6037002 42.9443789,32.6037002 42.7675842,32.8885409 Z" id="Shape"></path>
                            </g>
                        </g>
                    </g>
                </g>
            </g>
        </g>
    </g>
</svg>