<?xml version="1.0" encoding="UTF-8"?>
<svg width="56px" height="55px" viewBox="0 0 56 55" version="1.1" xmlns="http://www.w3.org/2000/svg" xmlns:xlink="http://www.w3.org/1999/xlink">
    <!-- Generator: Sketch 48.2 (47327) - http://www.bohemiancoding.com/sketch -->
    <title>noun_803583_cc</title>
    <desc>Created with Sketch.</desc>
    <defs></defs>
    <g id="Artboard-Copy-4" stroke="none" stroke-width="1" fill="none" fill-rule="evenodd" transform="translate(-155.000000, -501.000000)">
        <g id="траст.-символы" transform="translate(155.000000, 493.000000)" fill="#FFFFFF" fill-rule="nonzero">
            <g id="Group-22" transform="translate(0.000000, 8.000000)">
                <g id="Group-12">
                    <g id="noun_803583_cc">
                        <g id="Group">
                            <path d="M30.0767649,0.2189 C29.7980857,0.271482418 29.577817,0.541284615 29.5828144,0.823174725 L29.545197,6.26944396 C29.5452275,6.58590549 29.8348266,6.87371868 30.1531379,6.87377912 L43.5280142,6.87377912 C43.8463316,6.87371868 44.1359307,6.58590549 44.1359611,6.26944396 L44.1735785,0.823174725 C44.1735481,0.506834066 43.883949,0.21896044 43.5656316,0.2189 C39.0730188,0.2189 34.5598936,0.2189 30.0767649,0.2189 Z M30.7987083,1.42750989 L42.9576846,1.42750989 L42.9200672,5.66522967 L30.761091,5.66522967 L30.7987083,1.42750989 Z M19.096084,3.85234505 C18.8173927,3.90553187 18.597124,4.17472967 18.6021214,4.45661978 L18.6021214,9.29093846 C18.6021518,9.60727912 18.8917631,9.89509231 19.2100683,9.89515275 L20.4259683,9.89515275 L20.4259683,13.5208615 C14.1091136,13.5208615 7.77308487,13.5208615 1.46556157,13.5208615 C1.18688244,13.573444 0.966613748,13.8432462 0.971611139,14.1251363 L0.971611139,17.7508451 C0.971641574,18.0673066 1.2612407,18.3551198 1.57955201,18.3551802 L2.7954581,18.3551802 L2.7954581,53.4036099 C2.15615723,53.403489 1.48624505,53.4036099 0.857620704,53.4036099 C0.539297226,53.4332253 0.276821574,53.7482363 0.306665922,54.0645769 C0.336492009,54.380978 0.653287661,54.6418956 0.971611139,54.6122198 L55.079049,54.6122198 C55.4002333,54.6182637 55.6956516,54.3272473 55.6956516,54.0079451 C55.6956516,53.6886429 55.4002333,53.3990769 55.079049,53.4036099 L53.255202,53.4036099 L53.255202,9.89515275 L54.471102,9.89515275 C54.7894072,9.89509231 55.0790185,9.60727912 55.079049,9.29093846 L55.079049,4.45661978 C55.0790185,4.14027912 54.7894072,3.85240549 54.471102,3.85234505 L44.7439203,3.85234505 L44.7439203,5.06095495 L53.863149,5.06095495 L53.863149,8.68666374 L19.8180214,8.68666374 L19.8180214,5.06095495 L28.9372501,5.06095495 L28.9372501,3.85234505 C25.6610005,3.85234505 22.3626614,3.85234505 19.096084,3.85234505 Z M21.6418623,9.89515275 L52.039302,9.89515275 L52.039302,53.4036099 L48.3916142,53.4036099 L48.3916142,39.5051099 C48.3915837,39.1887088 48.1019724,38.9008956 47.7836611,38.9008352 C44.9129368,38.9008352 42.0193559,38.9008352 39.1583883,38.9008352 C38.8797092,38.9534176 38.6594344,39.2231593 38.6644318,39.5051099 L38.6644318,53.4036099 L21.6418623,53.4036099 C21.6430797,38.2499615 21.6418988,22.8661473 21.6418623,9.89515275 Z M25.7835188,13.5208615 C25.5048275,13.573444 25.2845588,13.8432462 25.2895562,14.1251363 L25.2895562,17.7508451 C25.2895866,18.0673066 25.5791979,18.3551198 25.8975092,18.3551802 L34.408791,18.3551802 C34.7271023,18.3551198 35.0167075,18.0673066 35.0167379,17.7508451 L35.0167379,14.1251363 C35.0167075,13.8087956 34.7271023,13.520922 34.408791,13.5208615 C31.5380666,13.5208615 28.6444857,13.5208615 25.7835188,13.5208615 Z M39.1583883,13.5208615 C38.8797092,13.573444 38.6594344,13.8432462 38.6644318,14.1251363 L38.6644318,17.7508451 C38.6644623,18.0673066 38.9540675,18.3551198 39.2723788,18.3551802 L47.7836611,18.3551802 C48.1019724,18.3551198 48.3915837,18.0673066 48.3916142,17.7508451 L48.3916142,14.1251363 C48.3915837,13.8087956 48.1019724,13.520922 47.7836611,13.5208615 C44.9129368,13.5208615 42.0193559,13.5208615 39.1583883,13.5208615 Z M2.18750505,14.7294714 L20.4259683,14.7294714 L20.4259683,17.1465703 L2.18750505,17.1465703 L2.18750505,14.7294714 Z M26.5054562,14.7294714 L33.8008379,14.7294714 L33.8008379,17.1465703 L26.5054562,17.1465703 L26.5054562,14.7294714 Z M39.8803318,14.7294714 L47.1757142,14.7294714 L47.1757142,17.1465703 L39.8803318,17.1465703 L39.8803318,14.7294714 Z M4.01135183,18.3551802 L20.4259683,18.3551802 L20.4259683,53.4036099 L4.01135183,53.4036099 L4.01135183,18.3551802 Z M7.5450553,21.980889 C7.266364,22.0334714 7.0460953,22.3032132 7.0510927,22.5851637 L7.0510927,26.2108846 C7.05112313,26.5272253 7.34072835,26.8150989 7.65904574,26.8151593 L16.1703275,26.8151593 C16.4886388,26.8150989 16.778244,26.5272253 16.7782744,26.2108846 L16.7782744,22.5851637 C16.778244,22.2687022 16.4886388,21.9809495 16.1703275,21.980889 C13.2996031,21.980889 10.4060223,21.980889 7.5450553,21.980889 Z M25.7835188,21.980889 C25.5048275,22.0334714 25.2845588,22.3032132 25.2895562,22.5851637 L25.2895562,26.2108846 C25.2895866,26.5272253 25.5791979,26.8150989 25.8975092,26.8151593 L34.408791,26.8151593 C34.7271023,26.8150989 35.0167075,26.5272253 35.0167379,26.2108846 L35.0167379,22.5851637 C35.0167075,22.2687022 34.7271023,21.9809495 34.408791,21.980889 C31.5380666,21.980889 28.6444857,21.980889 25.7835188,21.980889 Z M39.1583883,21.980889 C38.8797092,22.0334714 38.6594344,22.3032132 38.6644318,22.5851637 L38.6644318,26.2108846 C38.6644623,26.5272253 38.9540675,26.8150989 39.2723788,26.8151593 L47.7836611,26.8151593 C48.1019724,26.8150989 48.3915837,26.5272253 48.3916142,26.2108846 L48.3916142,22.5851637 C48.3915837,22.2687022 48.1019724,21.9809495 47.7836611,21.980889 C44.9129368,21.980889 42.0193559,21.980889 39.1583883,21.980889 Z M8.26698661,23.1894385 L15.5623744,23.1894385 L15.5623744,25.6065978 L8.26698661,25.6065978 L8.26698661,23.1894385 Z M26.5054562,23.1894385 L33.8008379,23.1894385 L33.8008379,25.6065978 L26.5054562,25.6065978 L26.5054562,23.1894385 Z M39.8803318,23.1894385 L47.1757142,23.1894385 L47.1757142,25.6065978 L39.8803318,25.6065978 L39.8803318,23.1894385 Z M7.5450553,30.4408681 C7.266364,30.4934505 7.0460953,30.7631923 7.0510927,31.0451429 L7.0510927,34.6708516 C7.05112313,34.9872527 7.34072835,35.2750659 7.65904574,35.2751264 L16.1703275,35.2751264 C16.4886388,35.2750659 16.778244,34.9872527 16.7782744,34.6708516 L16.7782744,31.0451429 C16.778244,30.7287418 16.4886388,30.4409286 16.1703275,30.4408681 C13.2996031,30.4408681 10.4060223,30.4408681 7.5450553,30.4408681 Z M25.7835188,30.4408681 C25.5048275,30.4934505 25.2845588,30.7631923 25.2895562,31.0451429 L25.2895562,34.6708516 C25.2895866,34.9872527 25.5791979,35.2750659 25.8975092,35.2751264 L34.408791,35.2751264 C34.7271023,35.2750659 35.0167075,34.9872527 35.0167379,34.6708516 L35.0167379,31.0451429 C35.0167075,30.7287418 34.7271023,30.4409286 34.408791,30.4408681 C31.5380666,30.4408681 28.6444857,30.4408681 25.7835188,30.4408681 Z M39.1583883,30.4408681 C38.8797092,30.4934505 38.6594344,30.7631923 38.6644318,31.0451429 L38.6644318,34.6708516 C38.6644623,34.9872527 38.9540675,35.2750659 39.2723788,35.2751264 L47.7836611,35.2751264 C48.1019724,35.2750659 48.3915837,34.9872527 48.3916142,34.6708516 L48.3916142,31.0451429 C48.3915837,30.7287418 48.1019724,30.4409286 47.7836611,30.4408681 C44.9129368,30.4408681 42.0193559,30.4408681 39.1583883,30.4408681 Z M8.26698661,31.6494176 L15.5623744,31.6494176 L15.5623744,34.0665769 L8.26698661,34.0665769 L8.26698661,31.6494176 Z M26.5054562,31.6494176 L33.8008379,31.6494176 L33.8008379,34.0665769 L26.5054562,34.0665769 L26.5054562,31.6494176 Z M39.8803318,31.6494176 L47.1757142,31.6494176 L47.1757142,34.0665769 L39.8803318,34.0665769 L39.8803318,31.6494176 Z M7.5450553,38.9008352 C7.266364,38.9534176 7.0460953,39.2231593 7.0510927,39.5051099 L7.0510927,43.1308187 C7.05112313,43.4472198 7.34072835,43.735033 7.65904574,43.7350934 L16.1703275,43.7350934 C16.4886388,43.735033 16.778244,43.4472198 16.7782744,43.1308187 L16.7782744,39.5051099 C16.778244,39.1887088 16.4886388,38.9008956 16.1703275,38.9008352 C13.2996031,38.9008352 10.4060223,38.9008352 7.5450553,38.9008352 Z M25.7835188,38.9008352 C25.5048275,38.9534176 25.2845588,39.2231593 25.2895562,39.5051099 L25.2895562,43.1308187 C25.2895866,43.4472198 25.5791979,43.735033 25.8975092,43.7350934 L34.408791,43.7350934 C34.7271023,43.735033 35.0167075,43.4472198 35.0167379,43.1308187 L35.0167379,39.5051099 C35.0167075,39.1887088 34.7271023,38.9008956 34.408791,38.9008352 C31.5380666,38.9008352 28.6444857,38.9008352 25.7835188,38.9008352 Z M8.26698661,40.1093846 L15.5623744,40.1093846 L15.5623744,42.526544 L8.26698661,42.526544 L8.26698661,40.1093846 Z M26.5054562,40.1093846 L33.8008379,40.1093846 L33.8008379,42.526544 L26.5054562,42.526544 L26.5054562,40.1093846 Z M39.8803318,40.1093846 L47.1757142,40.1093846 L47.1757142,53.4036099 L39.8803318,53.4036099 L39.8803318,40.1093846 Z" id="Shape"></path>
                        </g>
                    </g>
                </g>
            </g>
        </g>
    </g>
</svg>