<?xml version="1.0" encoding="UTF-8"?>
<svg width="52px" height="45px" viewBox="0 0 52 45" version="1.1" xmlns="http://www.w3.org/2000/svg" xmlns:xlink="http://www.w3.org/1999/xlink">
    <!-- Generator: Sketch 48.2 (47327) - http://www.bohemiancoding.com/sketch -->
    <title>001-museum-1</title>
    <desc>Created with Sketch.</desc>
    <defs></defs>
    <g id="Artboard-Copy-4" stroke="none" stroke-width="1" fill="none" fill-rule="evenodd" transform="translate(-499.000000, -618.000000)">
        <g id="траст.-символы" transform="translate(155.000000, 493.000000)" fill="#FFFFFF" fill-rule="nonzero">
            <g id="Group-13" transform="translate(337.000000, 0.000000)">
                <g id="Group-21">
                    <g id="Group-18" transform="translate(8.000000, 126.000000)">
                        <g id="001-museum-1">
                            <path d="M31.1764706,13 L32.8235294,13 C33.4705882,13 34,12.775 34,12.5 C34,12.225 33.4705882,12 32.8235294,12 L31.1764706,12 C30.5294118,12 30,12.225 30,12.5 C30,12.775 30.5294118,13 31.1764706,13 Z" id="Shape"></path>
                            <path d="M49.7906099,39.471008 L48.5274398,36.3511745 C48.1232254,35.4305679 47.213743,34.8168302 46.203207,34.8168302 L45.0916173,34.8168302 L45.0916173,14.4611954 L47.2642698,14.4611954 C48.224279,14.4611954 49.0327079,13.7963128 49.2348151,12.8757062 C49.4369223,11.9550996 48.9821811,10.9833482 48.1232254,10.5741897 L27.104076,0.498661909 C25.7903792,-0.166220636 24.2240483,-0.166220636 22.8092979,0.498661909 L1.68909482,10.5741897 C0.830139195,10.9833482 0.375397981,11.9039548 0.577505187,12.8757062 C0.779612393,13.8474576 1.58804122,14.5123402 2.54805045,14.5123402 L4.67017611,14.5123402 L4.67017611,34.867975 L3.76069368,34.867975 C2.75015765,34.867975 1.84067523,35.4817128 1.43646081,36.4023194 L0.173290775,39.471008 C-0.129870034,40.289325 -0.0288164313,41.1587868 0.425924783,41.8748142 C0.880665996,42.5908415 1.68909482,43 2.49752365,43 L47.466377,43 C48.2748058,43 49.0832347,42.5908415 49.5379759,41.8748142 C50.0432439,41.2099316 50.1442975,40.289325 49.7906099,39.471008 Z M2.59857725,12.4154029 L23.6682535,2.33987511 C24.5272091,1.93071662 25.4366915,1.93071662 26.2451204,2.33987511 L47.3147966,12.4154029 L44.0810813,12.4154029 C43.5252865,12.4154029 43.0705453,12.8757062 43.0705453,13.4382991 C43.0705453,13.5405888 43.0705453,13.5917336 43.1210721,13.6428784 C43.1210721,13.6940232 43.0705453,13.7963128 43.0705453,13.8474576 L43.0705453,34.8168302 L39.0284012,34.8168302 L39.0284012,20.5985727 C39.0284012,18.348201 37.2094363,16.5069878 34.986257,16.5069878 C32.7630778,16.5069878 30.9441129,18.348201 30.9441129,20.5985727 L30.9441129,34.867975 L28.9230408,34.867975 L28.9230408,20.5985727 C28.9230408,18.348201 27.104076,16.5069878 24.8808967,16.5069878 C22.6577175,16.5069878 20.8387526,18.348201 20.8387526,20.5985727 L20.8387526,34.867975 L18.8176805,34.867975 L18.8176805,20.5985727 C18.8176805,18.348201 16.9987157,16.5069878 14.7755364,16.5069878 C12.5523572,16.5069878 10.7333923,18.348201 10.7333923,20.5985727 L10.7333923,34.867975 L6.69124817,34.867975 L6.69124817,14.4611954 L26.4472276,14.4611954 C27.0030224,14.4611954 27.4577636,14.0008921 27.4577636,13.4382991 C27.4577636,12.8757062 27.0030224,12.4154029 26.4472276,12.4154029 L2.59857725,12.4154029 Z M37.0073291,20.5985727 L37.0073291,34.867975 L32.965185,34.867975 L32.965185,20.5985727 C32.965185,19.4733869 33.8746674,18.5527803 34.986257,18.5527803 C36.0978467,18.5527803 37.0073291,19.4733869 37.0073291,20.5985727 Z M26.9019688,20.5985727 L26.9019688,34.867975 L22.8598247,34.867975 L22.8598247,20.5985727 C22.8598247,19.4733869 23.7693071,18.5527803 24.8808967,18.5527803 C25.9924864,18.5527803 26.9019688,19.4733869 26.9019688,20.5985727 Z M16.7966085,20.5985727 L16.7966085,34.867975 L12.7544644,34.867975 L12.7544644,20.5985727 C12.7544644,19.4733869 13.6639468,18.5527803 14.7755364,18.5527803 C15.8871261,18.5527803 16.7966085,19.4733869 16.7966085,20.5985727 Z M47.8705914,40.7496283 C47.8200646,40.8007731 47.6684842,41.0053524 47.466377,41.0053524 L2.49752365,41.0053524 C2.24488964,41.0053524 2.14383603,40.8519179 2.09330923,40.7496283 C2.04278243,40.6984835 1.94172883,40.4939043 2.04278243,40.2381802 L3.30595247,37.2206363 C3.40700607,37.0160571 3.60911328,36.9137675 3.81122049,36.9137675 L46.2537338,36.9137675 C46.455841,36.9137675 46.6579482,37.0160571 46.7590018,37.2206363 L48.0221718,40.289325 C48.0221718,40.4939043 47.9211182,40.6984835 47.8705914,40.7496283 Z" id="Shape" stroke="#403C3C"></path>
                        </g>
                    </g>
                </g>
            </g>
        </g>
    </g>
</svg>