<?xml version="1.0" encoding="UTF-8"?>
<svg width="49px" height="54px" viewBox="0 0 49 54" version="1.1" xmlns="http://www.w3.org/2000/svg" xmlns:xlink="http://www.w3.org/1999/xlink">
    <!-- Generator: Sketch 48.2 (47327) - http://www.bohemiancoding.com/sketch -->
    <title>noun_850693_cc</title>
    <desc>Created with Sketch.</desc>
    <defs></defs>
    <g id="Artboard-Copy-4" stroke="none" stroke-width="1" fill="none" fill-rule="evenodd" transform="translate(-506.000000, -2073.000000)" opacity="0.799999952">
        <g id="Group-8" transform="translate(154.000000, 1877.000000)" fill="#C50B1E" fill-rule="nonzero" stroke="#FFFFFF" stroke-width="0.5">
            <g id="noun_850693_cc" transform="translate(353.000000, 197.000000)">
                <path d="M39.4625465,12.870395 C41.2207986,10.8052574 41.424988,7.81419021 39.9640724,5.52379546 C38.5031567,3.23340072 35.7264084,2.19126077 33.1438786,2.96411212 C30.5613488,3.73696348 28.7904628,6.1400346 28.7942638,8.86648745 C28.7942638,9.60953083 28.199302,10.2118865 27.4653795,10.2118865 C26.731457,10.2118865 26.1364953,9.60953083 26.1364953,8.86648745 C26.1260571,4.94104244 28.6731605,1.47860115 32.3909648,0.36438529 C36.1087691,-0.74983057 40.1070512,0.750976439 42.2088361,4.04965052 C44.3106209,7.3483246 44.0126391,11.6550028 41.477135,14.6247954 C41.170463,14.9993496 40.6879539,15.1771055 40.2152403,15.0896762 C39.7425266,15.0022469 39.3532593,14.6632542 39.1971985,14.2031166 C39.0411377,13.742979 39.1425985,13.2333879 39.4625465,12.870395 Z M24.79698,12.6551312 C34.0513298,12.6551312 42.1043683,18.5103079 44.0285927,26.4481623 C45.7950606,26.6472886 47.1910565,28.0561678 47.3933276,29.8439495 C47.4984674,30.909723 47.1505302,31.9704208 46.436531,32.7607747 C45.8043914,33.4685433 44.9305106,33.9070671 43.991384,33.9877786 C43.2928743,36.6746236 41.9426247,39.1423069 40.0632021,41.166828 L37.4904823,49.7397108 C37.0905626,51.0853506 35.8645492,52.0047949 34.4765728,51.9999812 L31.8560131,51.9999812 C30.4547671,51.9878677 29.2254756,51.051166 28.826157,49.6912764 L28.1563993,47.350282 C25.9325798,47.6854011 23.6720112,47.6854011 21.4481917,47.350282 L20.7731185,49.6912764 C20.3705449,51.0450203 19.1449332,51.9761978 17.7485779,51.989218 L15.1227027,51.989218 C13.7347263,51.9940317 12.5087128,51.0745874 12.1087932,49.7289476 L10.205831,43.4109536 C7.10378786,42.0132849 4.22764325,40.1500393 1.67439415,37.8840543 C0.60925733,36.9040233 0.00138221385,35.5149109 0,34.0577394 L0,28.837591 C0,26.5995444 1.79202476,24.7852491 4.00259934,24.7852491 L5.10291549,24.7852491 C6.02222619,23.8757351 6.82900918,22.8565305 7.5055382,21.7500288 L7.65437324,21.5132386 C7.40594358,20.6214895 6.92916951,19.81204 6.27233363,19.1668626 C5.49485547,18.3596486 5.25205168,17.168361 5.6504158,16.1154976 C6.04535232,15.017677 7.04021927,14.256986 8.19124247,14.1727413 C10.2969023,13.9577006 12.4188919,14.3671793 14.2987945,15.3513109 C17.5174529,13.5652805 21.1319371,12.6374662 24.8022955,12.6551312 L24.79698,12.6551312 Z M24.79698,15.3459293 C21.4277069,15.3301293 18.1153989,16.2256271 15.2024357,17.9398587 C14.6408669,18.2720003 13.9460909,18.2720003 13.3845221,17.9398587 C11.8803885,17.0519105 10.1350064,16.6747338 8.40386395,16.8635394 C8.2894023,16.8706214 8.19060278,16.9472381 8.15403371,17.0572769 C8.12013203,17.1359592 8.13697441,17.227612 8.19655801,17.2886855 C9.39883274,18.4529055 10.181107,19.991424 10.4184525,21.6585417 C10.4565133,21.9849957 10.3752071,22.3142621 10.1898844,22.5841762 C10.0569959,22.7779137 9.92942306,22.9770327 9.80716571,23.1761518 C8.91093903,24.6391801 7.81985023,25.9701908 6.56468816,27.131625 C6.31893825,27.3577739 5.99845755,27.4825675 5.66636241,27.4814288 L4.01854595,27.4814288 C3.27581638,27.4814288 2.6737151,28.0910127 2.6737151,28.8429726 L2.6737151,34.063121 C2.67402244,34.7619806 2.96545537,35.4282963 3.47636118,35.8982453 C5.87116009,38.0134678 8.57059655,39.7465352 11.4815599,41.0376697 C12.0718308,41.310123 12.5187417,41.8252671 12.7094489,42.4530295 L14.670882,48.9593793 C14.7310033,49.1725288 14.9250453,49.3182135 15.1439648,49.3145647 L17.7645246,49.3145647 C17.9798639,49.3026653 18.1667601,49.1602196 18.2376073,48.9539977 L19.1678263,45.72504 C19.4085915,44.9185918 20.2101507,44.4247236 21.0282643,44.57876 C23.5267776,45.0644916 26.0937601,45.0644916 28.5922734,44.57876 C28.6938287,44.5583387 28.7970407,44.5475289 28.9005745,44.5464704 C29.616616,44.5490147 30.246794,45.025337 30.4527113,45.7196584 L31.3829303,48.9486161 C31.4537775,49.154838 31.6406738,49.2972837 31.8560131,49.3091831 L34.4765728,49.3091831 C34.6954923,49.3128319 34.8895344,49.1671472 34.9496556,48.9539977 L37.527691,40.2896278 C37.6330988,39.9521261 37.8151489,39.6443241 38.0592447,39.3909012 C39.884241,37.4549212 41.1157636,35.0248227 41.6047079,32.3948261 C41.7179648,31.7534933 42.2688245,31.2864715 42.91233,31.2862173 L43.6618207,31.2862173 C43.9681884,31.2887383 44.2607356,31.1573193 44.4644668,30.9256504 C44.6741701,30.6962926 44.775046,30.385976 44.7408747,30.0753582 C44.6482188,29.4977493 44.1493089,29.0775896 43.5714565,29.0905261 L42.9335921,29.0905261 C42.2867135,29.0893555 41.7346448,28.6167647 41.62597,27.971154 C40.4299742,20.7813415 33.1902128,15.3459293 24.8022955,15.3459293 L24.79698,15.3459293 Z M17.7645246,38.4437403 C18.3474954,38.893121 19.179742,38.7799733 19.6249625,38.1908053 L29.8998955,24.5915116 C30.1847543,24.2069798 30.2453475,23.6977987 30.0588503,23.2557721 C29.8723531,22.8137454 29.4670989,22.5060274 28.9957429,22.4485326 C28.5243869,22.3910378 28.0585394,22.5925009 27.7736807,22.9770327 L17.5146943,36.5548 C17.2998417,36.838617 17.2054269,37.1973529 17.2523027,37.5517763 C17.2991786,37.9061996 17.4834882,38.2271496 17.7645246,38.4437403 Z M28.9962542,30.624281 C31.202679,30.6272456 32.9906097,32.437396 32.993538,34.6712413 L32.993538,35.4946256 C32.8408748,37.6096211 31.1014899,39.2466273 29.0068852,39.2466273 C26.9122806,39.2466273 25.1728957,37.6096211 25.0202325,35.4946256 L25.0202325,34.6712413 C25.0231033,32.44576 26.7981372,30.6390565 28.9962542,30.624281 Z M28.9962542,33.3150791 C28.2564603,33.3150791 27.6567389,33.9222536 27.6567389,34.6712413 L27.6567389,35.4946256 C27.7415708,36.1722618 28.3109504,36.6802668 28.9856231,36.6802668 C29.6602958,36.6802668 30.2296754,36.1722618 30.3145073,35.4946256 L30.3145073,34.6712413 C30.3145995,33.9305803 29.7277314,33.3268356 28.9962542,33.3150791 Z M18.4183356,30.5274123 C16.2119108,30.5244476 14.42398,28.7142972 14.4210518,26.4804519 L14.4210518,25.6570677 C14.3118881,24.1447129 15.0469665,22.6974726 16.3254851,21.9075732 C17.6040037,21.1176739 19.2114054,21.1176739 20.489924,21.9075732 C21.7684425,22.6974726 22.503521,24.1447129 22.3943573,25.6570677 L22.3943573,26.4804519 C22.3914865,28.7059333 20.6164526,30.5126367 18.4183356,30.5274123 Z M18.4183356,27.8366141 C18.7735972,27.8366141 19.1143081,27.6937332 19.365516,27.4394034 C19.6167238,27.1850737 19.7578509,26.8401285 19.7578509,26.4804519 L19.7578509,25.6570677 C19.8231112,25.1357693 19.5850527,24.6232203 19.1468687,24.3415998 C18.7086846,24.0599792 18.1492488,24.0599792 17.7110647,24.3415998 C17.2728806,24.6232203 17.0348221,25.1357693 17.1000824,25.6570677 L17.1000824,26.4804519 C17.0999903,27.2211129 17.6868583,27.8248576 18.4183356,27.8366141 Z" id="Shape"></path>
            </g>
        </g>
    </g>
</svg>