<?xml version="1.0" encoding="UTF-8"?>
<svg width="59px" height="50px" viewBox="0 0 59 50" version="1.1" xmlns="http://www.w3.org/2000/svg" xmlns:xlink="http://www.w3.org/1999/xlink">
    <!-- Generator: Sketch 48.2 (47327) - http://www.bohemiancoding.com/sketch -->
    <title>noun_1322419_cc</title>
    <desc>Created with Sketch.</desc>
    <defs></defs>
    <g id="Artboard-Copy-4" stroke="none" stroke-width="1" fill="none" fill-rule="evenodd" transform="translate(-499.000000, -508.000000)">
        <g id="траст.-символы" transform="translate(155.000000, 493.000000)" fill="#FFFFFF" fill-rule="nonzero" stroke="#544B43">
            <g id="Group-13" transform="translate(337.000000, 0.000000)">
                <g id="Group-21">
                    <g id="Group-20">
                        <g id="noun_1322419_cc" transform="translate(38.500000, 36.500000) rotate(-27.000000) translate(-38.500000, -36.500000) translate(9.000000, 11.000000)">
                            <g id="Group">
                                <path d="M19.3174716,0.248376623 C18.9240705,0.288751537 18.5687738,0.498626899 18.3465909,0.821880273 C18.124408,1.14513365 18.0580011,1.54879388 18.1651278,1.92491883 L23.7173295,20.8429383 L9.42826705,21.4224838 L6.49502841,16.7654221 C6.25064975,16.3804565 5.82360521,16.1460818 5.36363636,16.1444805 L1.34090909,16.1444805 C0.949479124,16.1458178 0.57817878,16.3160391 0.324434514,16.6104796 C0.0706902481,16.90492 -0.040166702,17.2941858 0.0209517045,17.6761364 L1.31995739,25.4172078 L0.0209517045,33.1375481 C-0.047032828,33.5227026 0.0606626095,33.9178555 0.315207606,34.217223 C0.569752603,34.5165905 0.945151599,34.6895996 1.34090909,34.6899351 L5.36363636,34.6899351 C5.82360521,34.6883338 6.25064975,34.453959 6.49502841,34.0689935 L9.42826705,29.4118987 L23.7173295,29.9914442 L18.1651278,48.8887987 C18.0468172,49.2877548 18.1249336,49.7184379 18.3761053,50.0519909 C18.627277,50.3855438 19.0223724,50.5832803 19.4431818,50.586039 L25.4772727,50.586039 C25.9372416,50.5844377 26.3642861,50.3500629 26.6086648,49.9650974 L36.3721591,34.7520623 C36.7713783,34.1347765 36.5884681,33.3146544 35.9636175,32.9202683 C35.338767,32.5258821 34.5085944,32.7065779 34.109375,33.3238636 L24.7230114,47.9366883 L21.2240767,47.9366883 L26.7553267,29.0807299 C26.8636215,28.6947874 26.789374,28.2811632 26.5533498,27.9555402 C26.3173256,27.6299171 25.9448612,27.4272499 25.5401278,27.4042208 L8.7787642,26.7418831 C8.29657988,26.7214878 7.840493,26.9586274 7.58451705,27.3628247 L4.6303267,32.0405844 L2.91228693,32.0405844 L4.00177557,25.6241883 C4.02600268,25.4802792 4.02600268,25.3334052 4.00177557,25.1894961 L2.93323864,18.7938312 L4.6303267,18.7938312 L7.58451705,23.4715909 C7.840493,23.8757882 8.29657988,24.1129278 8.7787642,24.0925325 L25.5401278,23.4301948 C25.9497575,23.4086772 26.3268885,23.2031317 26.5637694,22.8722857 C26.8006502,22.5414397 26.871224,22.1216862 26.7553267,21.7329545 L21.2240767,2.89772727 L24.7439631,2.89772727 L37.084517,22.1469156 C37.340493,22.5511128 37.7965799,22.7882525 38.2787642,22.7678571 L51.625,22.1055195 C51.6428408,22.1055195 51.6697662,22.1052082 51.6878551,22.1055195 C52.6336338,22.121813 53.9127947,22.5464509 54.8515625,23.2232143 C55.8082864,23.9129065 56.3181818,24.7763961 56.3181818,25.4172078 C56.3181818,26.0580195 55.8082871,26.9007779 54.8515625,27.5904701 C53.9127941,28.2672468 52.6336338,28.7126026 51.6878551,28.7288961 L51.625,28.7288961 L38.2787642,28.0665584 C37.7996441,28.0442767 37.3448947,28.2762341 37.0858554,28.6750341 C36.8268162,29.0738342 36.8028524,29.5788728 37.0229931,29.9998625 C37.2431337,30.4208521 37.6739249,30.6938167 38.153054,30.7159091 L51.5621449,31.3782468 C51.5830937,31.3787319 51.6040512,31.3787319 51.625,31.3782468 C53.3155464,31.3782468 55.0229166,30.7316727 56.4229403,29.7224026 C57.8229641,28.7131325 59,27.2531416 59,25.4172078 C59,23.5812608 57.8229647,22.1006049 56.4229403,21.0913149 C55.0229159,20.0820249 53.3155464,19.4561688 51.625,19.4561688 C51.6040512,19.4556837 51.5830937,19.4556837 51.5621449,19.4561688 L38.928267,20.0771104 L26.6086648,0.84862013 C26.3593317,0.471559681 25.9331663,0.245463846 25.4772727,0.248376623 L19.4431818,0.248376623 C19.4013014,0.246435308 19.359352,0.246435308 19.3174716,0.248376623 Z" id="Shape"></path>
                            </g>
                        </g>
                    </g>
                </g>
            </g>
        </g>
    </g>
</svg>