<?xml version="1.0" encoding="UTF-8"?>
<svg width="43px" height="54px" viewBox="0 0 43 54" version="1.1" xmlns="http://www.w3.org/2000/svg" xmlns:xlink="http://www.w3.org/1999/xlink">
    <!-- Generator: Sketch 48.2 (47327) - http://www.bohemiancoding.com/sketch -->
    <title>005-assistance</title>
    <desc>Created with Sketch.</desc>
    <defs></defs>
    <g id="Artboard-Copy-4" stroke="none" stroke-width="1" fill="none" fill-rule="evenodd" transform="translate(-154.000000, -1873.000000)" opacity="0.799999952">
        <g id="005-assistance" transform="translate(155.000000, 1874.000000)" fill="#C50B1E" fill-rule="nonzero">
            <path d="M37.6922469,31.0359766 C37.671225,31.0288672 37.6500011,31.0222656 37.628575,31.0161719 L31.9639065,29.393 L27.9429813,25.5385 L27.9429813,24.5023594 C29.8671838,22.5709453 31.0794748,19.9031016 31.0794748,16.9607344 L31.0794748,10.6638594 C31.0795759,4.79964063 26.3533085,0 20.4878212,0 C14.6363821,0 9.87595429,4.78389844 9.87595429,10.6639609 L9.87595429,16.9608359 C9.87595429,19.9032031 11.0882453,22.5710469 13.0124478,24.5024609 L13.0124478,25.5386016 L9.01719342,29.3877187 L3.45884673,31.0190156 C3.44055372,31.0243984 3.42246284,31.0300859 3.40447303,31.0360781 C0.964427858,31.8533516 -0.463841963,34.4479688 0.13689649,36.9564609 L2.81697427,50.7678438 C2.95806291,51.4952344 3.59255752,52 4.30325618,52 C4.34540085,52 4.38784872,51.9974609 4.43039766,51.9938047 C4.46870181,51.9968516 4.5069049,51.9997969 4.54591651,51.9997969 L36.6466143,51.9997969 C37.3662068,51.9997969 37.9867542,51.491375 38.1315823,50.7830781 L40.9578021,36.9646875 C41.563897,34.4535547 40.1351219,31.8542656 37.6922469,31.0359766 Z M29.1358676,30.8855625 L24.8002218,37.4211094 L22.4366838,35.0459688 L26.7251317,28.55125 L29.1358676,30.8855625 Z M20.4877201,3.046875 C22.9632396,3.046875 25.1650713,4.24582031 26.5492762,6.09588281 C25.1271715,7.99296875 22.8791524,9.140625 20.4877201,9.140625 L13.0602521,9.140625 C13.7646847,5.668 16.8271976,3.046875 20.4877201,3.046875 Z M12.8876308,16.9608359 L12.8876308,12.1873984 L20.4878212,12.1873984 C23.291301,12.1873984 25.9537932,11.0609687 27.9143796,9.13575 C28.0148395,9.62964844 28.0677983,10.1407109 28.0677983,10.6639609 L28.0677983,16.9608359 C28.0677983,21.1609531 24.6674206,24.5780234 20.4878212,24.5780234 C16.3081207,24.5780234 12.8876308,21.1609531 12.8876308,16.9608359 Z M14.2505107,28.55125 L18.5390596,35.0459688 L16.1755217,37.4211094 L11.8398758,30.8855625 L14.2505107,28.55125 Z M18.9719268,48.9528203 L5.55385134,48.9528203 C5.5425319,48.8947266 3.1031942,36.317125 3.08864065,36.2597422 C2.84517178,35.2809844 3.39416426,34.2645469 4.3401454,33.9343672 L9.26046015,32.4903516 L14.6785267,40.6573984 C15.2081145,41.4559844 16.3347012,41.5702422 17.0118458,40.8895703 L18.9719268,38.9198672 L18.9719268,48.9528203 Z M16.8516556,26.9797734 C17.9864287,27.3969922 19.2111509,27.6247969 20.4878212,27.6247969 C21.7644915,27.6247969 22.9892136,27.3969922 24.1239867,26.9797734 L20.4878212,32.4865938 L16.8516556,26.9797734 Z M37.9937278,36.3225078 L35.4105727,48.9528203 L21.9835023,48.9528203 L21.9835023,38.9198672 L23.9637966,40.8895703 C24.6402337,41.5696328 25.7670226,41.4565937 26.2971157,40.6573984 L31.7153844,32.4900469 L36.7606171,33.9357891 C37.588957,34.2269687 38.249931,35.0822266 37.9937278,36.3225078 Z" id="Shape" stroke="#FFFFFF"></path>
            <path d="M32.9193548,42.7741935 L29.983871,42.7741935 C29.173286,42.7741935 28.516129,43.5252301 28.516129,44.4516129 C28.516129,45.3779957 29.173286,46.1290323 29.983871,46.1290323 L32.9193548,46.1290323 C33.7299398,46.1290323 34.3870968,45.3779957 34.3870968,44.4516129 C34.3870968,43.5252301 33.7300376,42.7741935 32.9193548,42.7741935 Z" id="Shape"></path>
        </g>
    </g>
</svg>