<?xml version="1.0" encoding="UTF-8"?>
<svg width="54px" height="54px" viewBox="0 0 54 54" version="1.1" xmlns="http://www.w3.org/2000/svg" xmlns:xlink="http://www.w3.org/1999/xlink">
    <!-- Generator: Sketch 48.2 (47327) - http://www.bohemiancoding.com/sketch -->
    <title>004-24-hours</title>
    <desc>Created with Sketch.</desc>
    <defs></defs>
    <g id="Artboard-Copy-4" stroke="none" stroke-width="1" fill="none" fill-rule="evenodd" transform="translate(-853.000000, -1871.000000)" opacity="0.799999952">
        <g id="004-24-hours" transform="translate(854.000000, 1872.000000)" fill="#C50B1E" fill-rule="nonzero" stroke="#FFFFFF">
            <path d="M21.9555556,29.9866667 L17.8438,29.9866667 C18.165237,29.158948 18.8292,28.7895342 19.7897556,28.2551071 C21.3133556,27.4072529 23.4,26.246168 23.4,22.62 C23.4,20.182812 21.4560667,18.2 19.0666667,18.2 C16.6772667,18.2 14.7333333,20.182812 14.7333333,22.62 C14.7333333,23.4336729 15.3800593,24.0933333 16.1777778,24.0933333 C16.9754963,24.0933333 17.6222222,23.4336729 17.6222222,22.62 C17.6222222,21.807604 18.2702,21.1466667 19.0666667,21.1466667 C19.8631333,21.1466667 20.5303704,21.807604 20.5303704,22.62 C20.5303704,24.4970267 19.7634667,24.913096 18.4062667,25.6682284 C16.8561852,26.5307178 14.7333333,27.7119382 14.7333333,31.46 C14.7333333,32.2736729 15.3800593,32.9333333 16.1777778,32.9333333 L21.9555556,32.9333333 C22.7532741,32.9333333 23.4,32.2736729 23.4,31.46 C23.4,30.6463271 22.7532741,29.9866667 21.9555556,29.9866667 Z" id="Shape"></path>
            <path d="M38.35,24.0933333 L36.8333333,24.0933333 L36.8333333,19.6733333 C36.8333333,18.8596604 36.1542711,18.2 35.3166667,18.2 C34.4790622,18.2 33.8,18.8596604 33.8,19.6733333 L33.8,24.0933333 L30.7666667,24.0933333 L30.7666667,19.6733333 C30.7666667,18.8596604 30.0876044,18.2 29.25,18.2 C28.4123956,18.2 27.7333333,18.8596604 27.7333333,19.6733333 L27.7333333,25.5666667 C27.7333333,26.3803396 28.4123956,27.04 29.25,27.04 L33.8,27.04 L33.8,31.46 C33.8,32.2736729 34.4790622,32.9333333 35.3166667,32.9333333 C36.1542711,32.9333333 36.8333333,32.2736729 36.8333333,31.46 L36.8333333,27.04 L38.35,27.04 C39.1876044,27.04 39.8666667,26.3803396 39.8666667,25.5666667 C39.8666667,24.7529938 39.1876044,24.0933333 38.35,24.0933333 Z" id="Shape"></path>
            <path d="M50.4765625,24.578125 C49.6352187,24.578125 48.9734375,25.2602187 48.9734375,26.1015625 C48.9734375,38.7019141 38.6108125,48.9734375 25.8984375,48.9734375 C18.6853672,48.9734375 11.9036328,45.4883203 7.61728906,39.7921875 C10.8323516,39.7921875 11.0846328,39.8300703 11.4894609,39.5683437 C15.3406094,43.7048828 20.505875,45.90625 25.8984375,45.90625 C36.8161016,45.90625 45.90625,36.8518516 45.90625,25.8984375 C45.90625,22.0682109 44.7973906,18.3969297 42.7296797,15.234375 L47.4296875,15.234375 C48.2710313,15.234375 48.953125,14.5522813 48.953125,13.7109375 L48.953125,7.6171875 C48.953125,6.77584375 48.2710313,6.09375 47.4296875,6.09375 C46.5883437,6.09375 45.90625,6.77584375 45.90625,7.6171875 L45.90625,9.221875 C41.0085,3.44814844 33.6861484,0 25.8984375,0 C11.5903125,0 0,11.5749766 0,25.8984375 C0,26.7397813 0.68209375,27.421875 1.5234375,27.421875 C2.36478125,27.421875 3.0265625,26.7397813 3.0265625,25.8984375 C3.0265625,13.2980859 13.2980859,3.0265625 25.8984375,3.0265625 C33.2227187,3.0265625 40.0781875,6.51167969 44.3797656,12.2078125 C41.0835547,12.2078125 41.0013906,12.1163047 40.5140938,12.4295234 C36.6124688,8.29745312 31.3653437,6.09375 25.8984375,6.09375 C14.9781328,6.09375 6.09375,14.9781328 6.09375,25.8984375 C6.09375,29.7998594 7.21479687,33.5450781 9.3023125,36.765625 L4.5703125,36.765625 C3.72896875,36.765625 3.046875,37.4477187 3.046875,38.2890625 L3.046875,44.3828125 C3.046875,45.2241563 3.72896875,45.90625 4.5703125,45.90625 C5.41165625,45.90625 6.09375,45.2241563 6.09375,44.3828125 L6.09375,42.7901094 C11.0258281,48.6374687 18.2433672,52 25.8984375,52 C40.1070312,52 52,40.5214062 52,26.1015625 C52,25.2602187 51.3179063,24.578125 50.4765625,24.578125 Z M9.1203125,25.8984375 C9.1203125,16.6581797 16.6581797,9.1203125 25.8984375,9.1203125 C35.2507187,9.1203125 42.8796875,16.6581797 42.8796875,25.8984375 C42.8796875,35.0921797 35.0921797,42.8796875 25.8984375,42.8796875 C16.6581797,42.8796875 9.1203125,35.2507187 9.1203125,25.8984375 Z" id="Shape"></path>
        </g>
    </g>
</svg>