<?xml version="1.0" encoding="UTF-8"?>
<svg width="170px" height="37px" viewBox="0 0 170 37" version="1.1" xmlns="http://www.w3.org/2000/svg" xmlns:xlink="http://www.w3.org/1999/xlink">
    <!-- Generator: Sketch 48.2 (47327) - http://www.bohemiancoding.com/sketch -->
    <title>New_LOGO</title>
    <desc>Created with Sketch.</desc>
    <defs></defs>
    <g id="Artboard-Copy-2" stroke="none" stroke-width="1" fill="none" fill-rule="evenodd" transform="translate(-55.000000, -45.000000)">
        <g id="Group-24" transform="translate(55.000000, 40.000000)" fill-rule="nonzero">
            <g id="New_LOGO" transform="translate(0.000000, 5.000000)">
                <path d="M91.8660907,12.7621951 C93.1209503,12.7621951 94.0885529,12.445122 94.7991361,11.795122 C95.5399568,11.145122 95.9028078,10.2890244 95.9028078,9.24268293 C95.9028078,7.38780488 94.7991361,6.18292683 93.3477322,5.88170732 C94.2548596,5.53292683 94.9352052,4.59756098 94.9352052,3.31341463 C94.9352052,1.37926829 93.5593952,0.237804878 91.4276458,0.237804878 L86,0.237804878 L86,12.7621951 L91.8660907,12.7621951 Z M87.87473,7.02317073 L91.5334773,7.02317073 C93.0151188,7.02317073 93.8617711,7.72073171 93.8617711,8.95731707 C93.8617711,10.2256098 92.9848812,10.954878 91.5334773,10.954878 L87.87473,10.954878 L87.87473,7.02317073 Z M87.87473,2.04512195 L91.0950324,2.04512195 C92.349892,2.04512195 93.075594,2.6 93.075594,3.64634146 C93.075594,4.70853659 92.349892,5.27926829 91.0950324,5.27926829 L87.87473,5.27926829 L87.87473,2.04512195 Z M98.1555076,7.46707317 C98.1555076,9.24268293 98.6090713,10.5902439 99.5313175,11.5573171 C100.468683,12.5085366 101.663067,13 103.144708,13 C104.641469,13 105.835853,12.5085366 106.773218,11.5414634 C107.710583,10.5743902 108.164147,9.21097561 108.164147,7.46707317 L108.164147,0.237804878 L106.289417,0.237804878 L106.289417,7.5304878 C106.289417,9.87682927 105.049676,11.145122 103.144708,11.145122 C101.25486,11.145122 100.030238,9.87682927 100.030238,7.5304878 L100.030238,0.237804878 L98.1555076,0.237804878 L98.1555076,7.46707317 Z M114.740821,13 C116.056156,13 117.144708,12.6512195 118.021598,11.9853659 C118.883369,11.3353659 119.336933,10.4158537 119.336933,9.25853659 C119.261339,7.84756098 118.701944,6.94390244 117.643629,6.35731707 C116.887689,5.92926829 116.358531,5.70731707 115.451404,5.42195122 L114.090713,5.0097561 C113.803456,4.88292683 113.259179,4.70853659 113.032397,4.56585366 C112.62419,4.26463415 112.336933,3.97926829 112.336933,3.4402439 C112.336933,2.50487805 113.138229,1.83902439 114.771058,1.83902439 C116.086393,1.83902439 117.356371,2.23536585 118.565875,3.01219512 L118.565875,1.04634146 C117.447084,0.348780488 116.177106,0 114.740821,0 C112.064795,0 110.401728,1.34756098 110.401728,3.42439024 C110.401728,4.56585366 110.764579,5.37439024 111.62635,5.94512195 C112.079914,6.21463415 112.473002,6.42073171 112.820734,6.56341463 C113.183585,6.70609756 113.712743,6.89634146 114.37797,7.08658537 L114.61987,7.16585366 C115.390929,7.38780488 115.708423,7.48292683 116.2527,7.75243902 C116.524838,7.87926829 116.736501,8.00609756 116.87257,8.13292683 C117.159827,8.40243902 117.401728,8.78292683 117.401728,9.2902439 C117.401728,10.447561 116.207343,11.145122 114.634989,11.145122 C113.818575,11.145122 113.00216,10.9865854 112.185745,10.6695122 C111.384449,10.352439 110.734341,9.97195122 110.25054,9.52804878 L110.25054,11.652439 C111.429806,12.5402439 112.911447,13 114.740821,13 Z M123.676026,12.7621951 L123.676026,0.237804878 L121.801296,0.237804878 L121.801296,12.7621951 L123.676026,12.7621951 Z M128.604752,12.7621951 L128.604752,3.64634146 L135.393089,12.7621951 L136.980562,12.7621951 L136.980562,0.237804878 L135.136069,0.237804878 L135.136069,9.30609756 L128.393089,0.237804878 L126.760259,0.237804878 L126.760259,12.7621951 L128.604752,12.7621951 Z M148.667387,12.7621951 L148.667387,10.954878 L141.818575,10.954878 L141.818575,6.97560976 L147.215983,6.97560976 L147.215983,5.16829268 L141.818575,5.16829268 L141.818575,2.04512195 L148.440605,2.04512195 L148.440605,0.237804878 L139.943844,0.237804878 L139.943844,12.7621951 L148.667387,12.7621951 Z M154.654428,13 C155.969762,13 157.073434,12.6512195 157.935205,11.9853659 C158.812095,11.3353659 159.25054,10.4158537 159.25054,9.25853659 C159.190065,7.84756098 158.615551,6.94390244 157.557235,6.35731707 C156.816415,5.92926829 156.287257,5.70731707 155.38013,5.42195122 L154.00432,5.0097561 C153.717063,4.88292683 153.172786,4.70853659 152.946004,4.56585366 C152.537797,4.26463415 152.25054,3.97926829 152.25054,3.4402439 C152.25054,2.50487805 153.051836,1.83902439 154.699784,1.83902439 C156.015119,1.83902439 157.269978,2.23536585 158.479482,3.01219512 L158.479482,1.04634146 C157.37581,0.348780488 156.090713,0 154.654428,0 C151.978402,0 150.330454,1.34756098 150.330454,3.42439024 C150.330454,4.56585366 150.678186,5.37439024 151.555076,5.94512195 C151.993521,6.21463415 152.386609,6.42073171 152.74946,6.56341463 C153.112311,6.70609756 153.641469,6.89634146 154.306695,7.08658537 L154.533477,7.16585366 C155.304536,7.38780488 155.637149,7.48292683 156.181425,7.75243902 C156.453564,7.87926829 156.650108,8.00609756 156.786177,8.13292683 C157.088553,8.40243902 157.315335,8.78292683 157.315335,9.2902439 C157.315335,10.447561 156.12095,11.145122 154.563715,11.145122 C153.732181,11.145122 152.915767,10.9865854 152.099352,10.6695122 C151.298056,10.352439 150.647948,9.97195122 150.164147,9.52804878 L150.164147,11.652439 C151.343413,12.5402439 152.840173,13 154.654428,13 Z M165.419006,13 C166.719222,13 167.822894,12.6512195 168.684665,11.9853659 C169.561555,11.3353659 170,10.4158537 170,9.25853659 C169.939525,7.84756098 169.365011,6.94390244 168.306695,6.35731707 C167.565875,5.92926829 167.036717,5.70731707 166.12959,5.42195122 L164.768898,5.0097561 C164.466523,4.88292683 163.922246,4.70853659 163.710583,4.56585366 C163.302376,4.26463415 163,3.97926829 163,3.4402439 C163,2.50487805 163.801296,1.83902439 165.449244,1.83902439 C166.764579,1.83902439 168.019438,2.23536585 169.228942,3.01219512 L169.228942,1.04634146 C168.12527,0.348780488 166.840173,0 165.419006,0 C162.727862,0 161.079914,1.34756098 161.079914,3.42439024 C161.079914,4.56585366 161.442765,5.37439024 162.304536,5.94512195 C162.742981,6.21463415 163.136069,6.42073171 163.49892,6.56341463 C163.861771,6.70609756 164.390929,6.89634146 165.056156,7.08658537 L165.298056,7.16585366 C166.053996,7.38780488 166.386609,7.48292683 166.930886,7.75243902 C167.203024,7.87926829 167.414687,8.00609756 167.550756,8.13292683 C167.838013,8.40243902 168.079914,8.78292683 168.079914,9.2902439 C168.079914,10.447561 166.885529,11.145122 165.313175,11.145122 C164.49676,11.145122 163.665227,10.9865854 162.848812,10.6695122 C162.047516,10.352439 161.397408,9.97195122 160.928726,9.52804878 L160.928726,11.652439 C162.107991,12.5402439 163.589633,13 165.419006,13 Z" id="logo-word2" fill="#002868"></path>
                <path d="M83,11.8245243 L83,4.82452431 L80.8876404,4.82452431 L80.8876404,9.45665962 C77.5917603,9.45665962 74.2958801,9.45665962 71,9.45665962 L71,16.0718816 L73.1123596,16.0718816 L73.1123596,11.8245243 C76.4082397,11.8245243 79.7041199,11.8245243 83,11.8245243 Z M71,18.6321353 L71,21 L83,21 L83,18.6321353 C79,18.6321353 75,18.6321353 71,18.6321353 Z M83,2.38266385 L83,0 L71,0 L71,2.38266385 C75,2.38266385 79,2.38266385 83,2.38266385 Z" id="Shape" fill="#C50B1E"></path>
                <path d="M0,11.785 L3.9704698,11.785 L3.9704698,21.925 L5.85682327,21.925 L5.85682327,11.785 L9.84250559,11.785 L9.84250559,10.075 L0,10.075 L0,11.785 Z M13.7977629,21.925 L13.7977629,16.915 L16.6120805,16.915 L20.2326622,21.925 L22.5145414,21.925 L18.7418345,16.72 C20.3847875,16.33 21.3431767,15.07 21.3431767,13.45 C21.3431767,12.445 20.9932886,11.635 20.2782998,11.005 C19.5785235,10.375 18.6049217,10.075 17.3879195,10.075 L11.9114094,10.075 L11.9114094,21.925 L13.7977629,21.925 Z M13.7977629,11.785 L17.2662192,11.785 C18.6353468,11.785 19.4416107,12.43 19.4416107,13.51 C19.4416107,14.65 18.6353468,15.28 17.2662192,15.28 L13.7977629,15.28 L13.7977629,11.785 Z M25.3897092,21.925 L26.6675615,18.985 L32.3722595,18.985 L33.6805369,21.925 L35.7038031,21.925 L30.455481,10 L28.6299776,10 L23.3816555,21.925 L25.3897092,21.925 Z M29.5275168,12.355 L31.7181208,17.335 L27.3217002,17.335 L29.5275168,12.355 Z M41.5910515,22 L46.7480984,10.075 L44.7096197,10.075 L40.7239374,19.42 L36.738255,10.075 L34.6389262,10.075 L39.8111857,22 L41.5910515,22 Z M57.4729306,21.925 L57.4729306,20.215 L50.5816555,20.215 L50.5816555,16.465 L56.012528,16.465 L56.012528,14.755 L50.5816555,14.755 L50.5816555,11.785 L57.2447427,11.785 L57.2447427,10.075 L48.695302,10.075 L48.695302,21.925 L57.4729306,21.925 Z M68,21.925 L68,20.215 L61.6107383,20.215 L61.6107383,10.075 L59.6939597,10.075 L59.6939597,21.925 L68,21.925 Z" id="logo-word1" fill="#002868"></path>
                <polygon id="Shape" fill="#C50B1E" points="86 21 169 21 169 19 86 19"></polygon>
                <polygon id="Shape" fill="#C50B1E" points="0 2 68 2 68 0 0 0"></polygon>
                <path d="M1.11426041,36.8521561 L1.11426041,33.1560575 L4.44198406,36.8521561 L5.96279894,36.8521561 L2.16829052,32.6796715 L5.43578388,29.1478439 L4.00531444,29.1478439 L1.11426041,32.301848 L1.11426041,29.1478439 L0,29.1478439 L0,36.8521561 L1.11426041,36.8521561 Z M8.58281665,35.0451745 C8.11603189,34.5030801 7.87511072,33.8131417 7.87511072,33.0082136 C7.87511072,32.1868583 8.11603189,31.4969199 8.58281665,30.9712526 C9.06465899,30.412731 9.63684677,30.1334702 10.3445527,30.1334702 C11.0372011,30.1334702 11.6244464,30.412731 12.0912312,30.9712526 C12.5730735,31.4969199 12.8139947,32.1868583 12.8139947,33.0082136 C12.8139947,33.8131417 12.5730735,34.5030801 12.0912312,35.0451745 C11.6244464,35.587269 11.0372011,35.8665298 10.3445527,35.8665298 C9.63684677,35.8665298 9.06465899,35.587269 8.58281665,35.0451745 Z M12.9193977,35.8501027 C13.6120461,35.0780287 13.9583702,34.1416838 13.9583702,33.0082136 C13.9583702,31.8747433 13.6120461,30.9219713 12.9193977,30.1663244 C12.2418069,29.3942505 11.3835252,29 10.3445527,29 C9.30558016,29 8.44729849,29.3942505 7.75465013,30.1663244 C7.07705934,30.9219713 6.73073516,31.8747433 6.73073516,33.0082136 C6.73073516,34.1416838 7.07705934,35.0780287 7.75465013,35.8501027 C8.44729849,36.6057495 9.30558016,37 10.3445527,37 C11.3835252,37 12.2418069,36.6057495 12.9193977,35.8501027 Z M17.3011515,36.8521561 L17.3011515,31.0041068 L19.2736935,33.9117043 L19.9211692,33.9117043 L21.8937112,31.0041068 L21.8937112,36.8521561 L22.9929141,36.8521561 L22.9929141,29.1478439 L21.8937112,29.1478439 L19.6200177,32.613963 L17.3312666,29.1478439 L16.2019486,29.1478439 L16.2019486,36.8521561 L17.3011515,36.8521561 Z M26.6067316,36.8521561 L26.6067316,30.2648871 L30.1302037,30.2648871 L30.1302037,36.8521561 L31.2294066,36.8521561 L31.2294066,29.1478439 L25.4924712,29.1478439 L25.4924712,36.8521561 L26.6067316,36.8521561 Z M34.2559787,36.8521561 L35.0088574,34.9466119 L38.3666962,34.9466119 L39.1346324,36.8521561 L40.3241807,36.8521561 L37.2373782,29.0985626 L36.1682905,29.0985626 L33.081488,36.8521561 L34.2559787,36.8521561 Z M36.680248,30.6427105 L37.9751993,33.8788501 L35.4003543,33.8788501 L36.680248,30.6427105 Z M43.275465,36.8521561 L43.275465,33.3039014 L46.9495128,33.3039014 L46.9495128,36.8521561 L48.0637733,36.8521561 L48.0637733,29.1478439 L46.9495128,29.1478439 L46.9495128,32.1868583 L43.275465,32.1868583 L43.275465,29.1478439 L42.1612046,29.1478439 L42.1612046,36.8521561 L43.275465,36.8521561 Z M51.5119575,36.8521561 L55.4118689,31.1683778 L55.4118689,36.8521561 L56.5261293,36.8521561 L56.5261293,29.1478439 L55.5473871,29.1478439 L51.6625332,34.8151951 L51.6625332,29.1478439 L50.5633304,29.1478439 L50.5633304,36.8521561 L51.5119575,36.8521561 Z M59.7785651,36.8521561 L61.9016829,33.5995893 L63.5580159,33.5995893 L63.5580159,36.8521561 L64.6722764,36.8521561 L64.6722764,29.1478439 L61.4499557,29.1478439 C59.9893711,29.1478439 59.1009743,30.0184805 59.1009743,31.3326489 C59.1009743,32.4004107 59.6882197,33.2053388 60.6820195,33.4681725 L58.4384411,36.8521561 L59.7785651,36.8521561 Z M61.4951284,32.5318275 C60.6970771,32.5318275 60.2302923,32.1047228 60.2302923,31.3983573 C60.2302923,30.6919918 60.6970771,30.2648871 61.4951284,30.2648871 L63.5580159,30.2648871 L63.5580159,32.5318275 L61.4951284,32.5318275 Z M73.5261293,36.8521561 L73.5261293,33.6817248 L75.4534987,33.6817248 C76.1913198,33.6817248 76.7635075,33.4681725 77.170062,33.0410678 C77.591674,32.5975359 77.8175376,32.0554415 77.8175376,31.3819302 C77.8175376,30.724846 77.591674,30.1827515 77.170062,29.7720739 C76.7635075,29.3613963 76.1913198,29.1478439 75.4534987,29.1478439 L72.4118689,29.1478439 L72.4118689,36.8521561 L73.5261293,36.8521561 Z M73.5261293,30.2648871 L75.3631532,30.2648871 C76.1913198,30.2648871 76.6882197,30.6755647 76.6882197,31.3983573 C76.6882197,32.137577 76.1913198,32.5646817 75.3631532,32.5646817 L73.5261293,32.5646817 L73.5261293,30.2648871 Z M84.9849424,36.8521561 L84.9849424,35.75154 L80.9344553,35.75154 L80.9344553,33.3039014 L84.1266608,33.3039014 L84.1266608,32.1868583 L80.9344553,32.1868583 L80.9344553,30.2648871 L84.8644818,30.2648871 L84.8644818,29.1478439 L79.8352524,29.1478439 L79.8352524,36.8521561 L84.9849424,36.8521561 Z M88.1470328,36.8521561 L88.1470328,30.2648871 L91.9867139,30.2648871 L91.9867139,29.1478439 L87.0327724,29.1478439 L87.0327724,36.8521561 L88.1470328,36.8521561 Z M94.9078831,36.8521561 L98.8228521,31.1683778 L98.8228521,36.8521561 L99.9220549,36.8521561 L99.9220549,29.1478439 L98.9583702,29.1478439 L95.0735164,34.8151951 L95.0735164,29.1478439 L93.959256,29.1478439 L93.959256,36.8521561 L94.9078831,36.8521561 Z M104.017715,35.0451745 C103.55093,34.5030801 103.310009,33.8131417 103.310009,33.0082136 C103.310009,32.1868583 103.55093,31.4969199 104.017715,30.9712526 C104.499557,30.412731 105.071745,30.1334702 105.779451,30.1334702 C106.472099,30.1334702 107.059345,30.412731 107.526129,30.9712526 C108.007972,31.4969199 108.248893,32.1868583 108.248893,33.0082136 C108.248893,33.8131417 108.007972,34.5030801 107.526129,35.0451745 C107.059345,35.587269 106.472099,35.8665298 105.779451,35.8665298 C105.071745,35.8665298 104.499557,35.587269 104.017715,35.0451745 Z M108.354296,35.8501027 C109.046944,35.0780287 109.393268,34.1416838 109.393268,33.0082136 C109.393268,31.8747433 109.046944,30.9219713 108.354296,30.1663244 C107.676705,29.3942505 106.818423,29 105.779451,29 C104.740478,29 103.882197,29.3942505 103.189548,30.1663244 C102.511957,30.9219713 102.165633,31.8747433 102.165633,33.0082136 C102.165633,34.1416838 102.511957,35.0780287 103.189548,35.8501027 C103.882197,36.6057495 104.740478,37 105.779451,37 C106.818423,37 107.676705,36.6057495 108.354296,35.8501027 Z M112.73605,36.8521561 L112.73605,33.3039014 L116.425155,33.3039014 L116.425155,36.8521561 L117.539415,36.8521561 L117.539415,29.1478439 L116.425155,29.1478439 L116.425155,32.1868583 L112.73605,32.1868583 L112.73605,29.1478439 L111.621789,29.1478439 L111.621789,36.8521561 L112.73605,36.8521561 Z M129.193977,37 C129.992028,37 130.684677,36.7864476 131.256864,36.37577 L131.256864,35.1601643 C130.714792,35.6365503 130.037201,35.8665298 129.23915,35.8665298 C128.486271,35.8665298 127.868911,35.6036961 127.356953,35.0616016 C126.860053,34.5195072 126.604074,33.8295688 126.604074,33.0082136 C126.604074,32.1704312 126.844996,31.4969199 127.341895,30.9548255 C127.838795,30.412731 128.471213,30.1334702 129.209035,30.1334702 C129.901683,30.1334702 130.534101,30.3305955 131.106289,30.7412731 L131.106289,29.5256674 C130.549159,29.1806982 129.91674,29 129.193977,29 C128.124889,29 127.236492,29.3778234 126.528787,30.1334702 C125.821081,30.889117 125.474756,31.8418891 125.474756,33.0082136 C125.474756,34.1581109 125.821081,35.110883 126.528787,35.8829569 C127.25155,36.6221766 128.139947,37 129.193977,37 Z M138.514615,36.8521561 L138.514615,35.75154 L134.479185,35.75154 L134.479185,33.3039014 L137.656333,33.3039014 L137.656333,32.1868583 L134.479185,32.1868583 L134.479185,30.2648871 L138.394154,30.2648871 L138.394154,29.1478439 L133.364925,29.1478439 L133.364925,36.8521561 L138.514615,36.8521561 Z M141.676705,36.8521561 L141.676705,33.6817248 L143.604074,33.6817248 C144.341895,33.6817248 144.914083,33.4681725 145.335695,33.0410678 C145.757307,32.5975359 145.968113,32.0554415 145.968113,31.3819302 C145.968113,30.724846 145.757307,30.1827515 145.335695,29.7720739 C144.914083,29.3613963 144.341895,29.1478439 143.604074,29.1478439 L140.577502,29.1478439 L140.577502,36.8521561 L141.676705,36.8521561 Z M141.676705,30.2648871 L143.513729,30.2648871 C144.356953,30.2648871 144.853853,30.6755647 144.853853,31.3983573 C144.853853,32.137577 144.356953,32.5646817 143.513729,32.5646817 L141.676705,32.5646817 L141.676705,30.2648871 Z M151.464128,36.8521561 C152.201949,36.8521561 152.774136,36.6550308 153.195748,36.2607803 C153.632418,35.8665298 153.843224,35.3408624 153.843224,34.6837782 C153.843224,33.550308 153.195748,32.8110883 152.337467,32.6303901 C152.879539,32.4004107 153.286094,31.8418891 153.286094,31.036961 C153.286094,29.8542094 152.457927,29.1478439 151.193091,29.1478439 L147.985828,29.1478439 L147.985828,36.8521561 L151.464128,36.8521561 Z M149.100089,33.3203285 L151.268379,33.3203285 C152.141718,33.3203285 152.638618,33.7474333 152.638618,34.5030801 C152.638618,35.2915811 152.111603,35.75154 151.268379,35.75154 L149.100089,35.75154 L149.100089,33.3203285 Z M149.100089,30.2648871 L151.0124,30.2648871 C151.750221,30.2648871 152.186891,30.6098563 152.186891,31.2505133 C152.186891,31.9075975 151.750221,32.2525667 151.0124,32.2525667 L149.100089,32.2525667 L149.100089,30.2648871 Z M156.960142,36.8521561 L160.860053,31.1683778 L160.860053,36.8521561 L161.974314,36.8521561 L161.974314,29.1478439 L160.995571,29.1478439 L157.110717,34.8151951 L157.110717,29.1478439 L156.011515,29.1478439 L156.011515,36.8521561 L156.960142,36.8521561 Z M167.937112,37 C168.735164,37 169.427812,36.7864476 170,36.37577 L170,35.1601643 C169.457927,35.6365503 168.780337,35.8665298 167.982285,35.8665298 C167.229407,35.8665298 166.612046,35.6036961 166.100089,35.0616016 C165.603189,34.5195072 165.34721,33.8295688 165.34721,33.0082136 C165.34721,32.1704312 165.603189,31.4969199 166.085031,30.9548255 C166.581931,30.412731 167.214349,30.1334702 167.95217,30.1334702 C168.644818,30.1334702 169.277236,30.3305955 169.849424,30.7412731 L169.849424,29.5256674 C169.307352,29.1806982 168.659876,29 167.937112,29 C166.868025,29 165.979628,29.3778234 165.271922,30.1334702 C164.564216,30.889117 164.217892,31.8418891 164.217892,33.0082136 C164.217892,34.1581109 164.564216,35.110883 165.271922,35.8829569 C165.994686,36.6221766 166.883082,37 167.937112,37 Z M123.110717,34.3552361 L123.110717,33.2874743 L120.144376,33.2874743 L120.144376,34.3552361 L123.110717,34.3552361 Z" id="Shape" fill="#B3B3B3"></path>
            </g>
        </g>
    </g>
</svg>