<svg xmlns="http://www.w3.org/2000/svg" width="170" height="37" viewBox="0 0 170 37">
    <g fill="none" fill-rule="nonzero">
        <path fill="#FFF" d="M91.866 12.762c1.255 0 2.223-.317 2.933-.967.741-.65 1.104-1.506 1.104-2.552 0-1.855-1.104-3.06-2.555-3.361.907-.35 1.587-1.284 1.587-2.569 0-1.934-1.376-3.075-3.507-3.075H86v12.524h5.866zm-3.991-5.739h3.658c1.482 0 2.329.698 2.329 1.934 0 1.269-.877 1.998-2.329 1.998h-3.658V7.023zm0-4.978h3.22c1.255 0 1.98.555 1.98 1.601 0 1.063-.725 1.633-1.98 1.633h-3.22V2.045zm10.28 5.422c0 1.776.454 3.123 1.376 4.09.938.952 2.132 1.443 3.614 1.443 1.496 0 2.69-.491 3.628-1.459.938-.967 1.391-2.33 1.391-4.074V.237h-1.875V7.53c0 2.347-1.24 3.615-3.144 3.615-1.89 0-3.115-1.268-3.115-3.615V.238h-1.874v7.23zM114.742 13c1.315 0 2.404-.349 3.28-1.015.862-.65 1.316-1.57 1.316-2.726-.076-1.411-.635-2.315-1.693-2.902-.756-.428-1.285-.65-2.193-.935l-1.36-.412c-.288-.127-.832-.301-1.059-.444-.408-.301-.695-.587-.695-1.126 0-.935.801-1.601 2.434-1.601 1.315 0 2.585.396 3.795 1.173V1.046C117.447.35 116.177 0 114.74 0c-2.676 0-4.34 1.348-4.34 3.424 0 1.142.364 1.95 1.225 2.521.454.27.847.476 1.195.618.363.143.892.333 1.557.524l.242.079c.77.222 1.088.317 1.633.586.272.127.484.254.62.38.287.27.529.65.529 1.158 0 1.158-1.195 1.855-2.767 1.855a6.723 6.723 0 0 1-2.45-.475c-.8-.318-1.45-.698-1.934-1.142v2.124c1.179.888 2.66 1.348 4.49 1.348zm8.935-.238V.238h-1.875v12.524h1.875zm4.929 0V3.646l6.788 9.116h1.588V.238h-1.845v9.068L128.393.238h-1.633v12.524h1.845zm20.062 0v-1.807h-6.848v-3.98h5.397V5.169h-5.397V2.045h6.622V.238h-8.497v12.524h8.723zm5.987.238c1.316 0 2.42-.349 3.281-1.015.877-.65 1.316-1.57 1.316-2.726-.06-1.411-.635-2.315-1.694-2.902-.74-.428-1.27-.65-2.177-.935l-1.376-.412c-.287-.127-.831-.301-1.058-.444-.408-.301-.695-.587-.695-1.126 0-.935.8-1.601 2.449-1.601 1.315 0 2.57.396 3.78 1.173V1.046C157.375.35 156.09 0 154.653 0c-2.676 0-4.324 1.348-4.324 3.424 0 1.142.348 1.95 1.225 2.521.439.27.832.476 1.194.618.363.143.892.333 1.558.524l.226.079c.772.222 1.104.317 1.648.586.273.127.47.254.605.38.303.27.53.65.53 1.158 0 1.158-1.195 1.855-2.752 1.855a6.74 6.74 0 0 1-2.465-.475c-.8-.318-1.451-.698-1.935-1.142v2.124c1.18.888 2.676 1.348 4.49 1.348zm10.765 0c1.3 0 2.404-.349 3.266-1.015.877-.65 1.315-1.57 1.315-2.726-.06-1.411-.635-2.315-1.693-2.902-.741-.428-1.27-.65-2.177-.935l-1.361-.412c-.302-.127-.847-.301-1.058-.444-.409-.301-.711-.587-.711-1.126 0-.935.801-1.601 2.45-1.601 1.315 0 2.57.396 3.779 1.173V1.046C168.125.35 166.84 0 165.419 0c-2.691 0-4.34 1.348-4.34 3.424 0 1.142.364 1.95 1.226 2.521.438.27.831.476 1.194.618.363.143.892.333 1.557.524l.242.079c.756.222 1.089.317 1.633.586.272.127.484.254.62.38.287.27.529.65.529 1.158 0 1.158-1.194 1.855-2.767 1.855a6.8 6.8 0 0 1-2.464-.475c-.801-.318-1.452-.698-1.92-1.142v2.124c1.179.888 2.66 1.348 4.49 1.348z"/>
        <path fill="#C50B1E" d="M83 11.825v-7h-2.112v4.632H71v6.615h2.112v-4.247H83zm-12 6.807V21h12v-2.368H71zm12-16.25V0H71v2.383h12z"/>
        <path fill="#FFF" d="M0 11.785h3.97v10.14h1.887v-10.14h3.986v-1.71H0v1.71zm13.798 10.14v-5.01h2.814l3.62 5.01h2.283l-3.773-5.205c1.643-.39 2.601-1.65 2.601-3.27 0-1.005-.35-1.815-1.065-2.445-.7-.63-1.673-.93-2.89-.93H11.91v11.85h1.887zm0-10.14h3.468c1.37 0 2.176.645 2.176 1.725 0 1.14-.807 1.77-2.176 1.77h-3.468v-3.495zm11.592 10.14l1.278-2.94h5.704l1.309 2.94h2.023L30.455 10H28.63l-5.248 11.925h2.008zm4.138-9.57l2.19 4.98h-4.396l2.206-4.98zM41.59 22l5.157-11.925H44.71l-3.986 9.345-3.986-9.345h-2.1L39.812 22h1.78zm15.882-.075v-1.71h-6.891v-3.75h5.43v-1.71h-5.43v-2.97h6.663v-1.71h-8.55v11.85h8.778zm10.527 0v-1.71h-6.39v-10.14h-1.916v11.85H68z"/>
        <path fill="#C50B1E" d="M86 21h83v-2H86zM0 2h68V0H0z"/>
        <path fill="#FFF" d="M1.114 36.852v-3.696l3.328 3.696h1.52L2.169 32.68l3.268-3.532h-1.43l-2.892 3.154v-3.154H0v7.704h1.114zm7.469-1.807c-.467-.542-.708-1.232-.708-2.037 0-.821.241-1.511.708-2.037.482-.558 1.054-.838 1.762-.838.692 0 1.28.28 1.746.838.482.526.723 1.216.723 2.037 0 .805-.24 1.495-.723 2.037-.467.542-1.054.822-1.746.822-.708 0-1.28-.28-1.762-.822zm4.336.805c.693-.772 1.04-1.708 1.04-2.842 0-1.133-.347-2.086-1.04-2.842-.677-.772-1.535-1.166-2.574-1.166-1.04 0-1.898.394-2.59 1.166-.678.756-1.024 1.709-1.024 2.842 0 1.134.346 2.07 1.024 2.842.692.756 1.55 1.15 2.59 1.15 1.039 0 1.897-.394 2.574-1.15zm4.382 1.002v-5.848l1.973 2.908h.647l1.973-2.908v5.848h1.099v-7.704h-1.1l-2.273 3.466-2.289-3.466h-1.13v7.704h1.1zm9.306 0v-6.587h3.523v6.587h1.1v-7.704h-5.738v7.704h1.115zm7.649 0l.753-1.905h3.358l.768 1.905h1.19L37.236 29.1h-1.069l-3.087 7.753h1.175zm2.424-6.21l1.295 3.237H35.4l1.28-3.236zm6.595 6.21v-3.548h3.675v3.548h1.114v-7.704H46.95v3.039h-3.675v-3.04h-1.114v7.705h1.114zm8.237 0l3.9-5.684v5.684h1.114v-7.704h-.979l-3.884 5.667v-5.667h-1.1v7.704h.949zm8.267 0l2.123-3.252h1.656v3.252h1.114v-7.704H61.45c-1.46 0-2.349.87-2.349 2.185 0 1.067.587 1.872 1.581 2.135l-2.244 3.384h1.34zm1.716-4.32c-.798 0-1.265-.427-1.265-1.134 0-.706.467-1.133 1.265-1.133h2.063v2.267h-2.063zm12.031 4.32v-3.17h1.927c.738 0 1.31-.214 1.717-.64.422-.444.648-.987.648-1.66 0-.657-.226-1.2-.648-1.61-.406-.41-.979-.624-1.717-.624h-3.041v7.704h1.114zm0-6.587h1.837c.828 0 1.325.41 1.325 1.133 0 .74-.497 1.167-1.325 1.167h-1.837v-2.3zm11.459 6.587v-1.1h-4.05v-2.448h3.192v-1.117h-3.193v-1.922h3.93v-1.117h-5.029v7.704h5.15zm3.162 0v-6.587h3.84v-1.117h-4.954v7.704h1.114zm6.76 0l3.916-5.684v5.684h1.1v-7.704h-.965l-3.884 5.667v-5.667h-1.115v7.704h.949zm9.11-1.807c-.466-.542-.707-1.232-.707-2.037 0-.821.24-1.511.708-2.037.482-.558 1.054-.838 1.761-.838.693 0 1.28.28 1.747.838.482.526.723 1.216.723 2.037 0 .805-.241 1.495-.723 2.037-.467.542-1.054.822-1.747.822-.707 0-1.28-.28-1.761-.822zm4.337.805c.693-.772 1.04-1.708 1.04-2.842 0-1.133-.347-2.086-1.04-2.842-.677-.772-1.536-1.166-2.575-1.166-1.039 0-1.897.394-2.59 1.166-.677.756-1.023 1.709-1.023 2.842 0 1.134.346 2.07 1.024 2.842.692.756 1.55 1.15 2.59 1.15 1.038 0 1.897-.394 2.574-1.15zm4.382 1.002v-3.548h3.69v3.548h1.113v-7.704h-1.114v3.039h-3.689v-3.04h-1.114v7.705h1.114zm16.458.148c.798 0 1.49-.214 2.063-.624V35.16c-.542.477-1.22.707-2.018.707-.753 0-1.37-.263-1.882-.805-.497-.542-.753-1.232-.753-2.054 0-.838.241-1.511.738-2.053a2.45 2.45 0 0 1 1.867-.822c.693 0 1.325.198 1.897.608v-1.215a3.55 3.55 0 0 0-1.912-.526c-1.07 0-1.958.378-2.665 1.133-.708.756-1.054 1.709-1.054 2.875 0 1.15.346 2.103 1.054 2.875.723.74 1.61 1.117 2.665 1.117zm9.32-.148v-1.1h-4.035v-2.448h3.177v-1.117h-3.177v-1.922h3.915v-1.117h-5.03v7.704h5.15zm3.163 0v-3.17h1.927c.738 0 1.31-.214 1.732-.64.421-.444.632-.987.632-1.66 0-.657-.21-1.2-.632-1.61-.422-.41-.994-.624-1.732-.624h-3.026v7.704h1.099zm0-6.587h1.837c.843 0 1.34.41 1.34 1.133 0 .74-.497 1.167-1.34 1.167h-1.837v-2.3zm9.787 6.587c.738 0 1.31-.197 1.732-.591.436-.394.647-.92.647-1.577 0-1.134-.647-1.873-1.506-2.054.543-.23.95-.788.95-1.593 0-1.183-.83-1.89-2.094-1.89h-3.207v7.705h3.478zM149.1 33.32h2.168c.874 0 1.37.427 1.37 1.183 0 .789-.526 1.249-1.37 1.249H149.1V33.32zm0-3.055h1.912c.738 0 1.175.345 1.175.986 0 .657-.437 1.002-1.175 1.002H149.1v-1.988zm7.86 6.587l3.9-5.684v5.684h1.114v-7.704h-.978l-3.885 5.667v-5.667h-1.1v7.704h.95zm10.977.148c.798 0 1.49-.214 2.063-.624V35.16c-.542.477-1.22.707-2.018.707-.753 0-1.37-.263-1.882-.805-.497-.542-.753-1.232-.753-2.054 0-.838.256-1.511.738-2.053a2.45 2.45 0 0 1 1.867-.822c.693 0 1.325.198 1.897.608v-1.215c-.542-.345-1.19-.526-1.912-.526-1.069 0-1.957.378-2.665 1.133-.708.756-1.054 1.709-1.054 2.875 0 1.15.346 2.103 1.054 2.875.723.74 1.611 1.117 2.665 1.117zm-44.826-2.645v-1.068h-2.967v1.068h2.967z"/>
    </g>
</svg>
