<svg xmlns="http://www.w3.org/2000/svg" xmlns:xlink="http://www.w3.org/1999/xlink" width="0" height="0" style="position:absolute">
	
		<symbol id="icon-car" viewBox="0 0 61 32">
			<title>005-car</title><defs><linearGradient x1="114.499%" y1="137.06%" x2="50%" y2="100%" id="a"><stop stop-color="#676969" offset="0%"></stop><stop stop-color="#02141E" offset="100%"></stop></linearGradient></defs><g transform="translate(-699 -29)" fill="#FFF" stroke="url(#a)" stroke-width="1.5"><path d="M737.75 38.667H726.5v-3.5c0-.644-.56-1.167-1.25-1.167s-1.25.523-1.25 1.167v4.666c0 .644.56 1.167 1.25 1.167h12.5c.69 0 1.25-.523 1.25-1.167s-.56-1.166-1.25-1.166zM746.5 45c-4.135 0-7.5 3.365-7.5 7.5s3.365 7.5 7.5 7.5 7.5-3.365 7.5-7.5-3.365-7.5-7.5-7.5zm0 12.5c-2.758 0-5-2.242-5-5s2.242-5 5-5 5 2.242 5 5-2.242 5-5 5zm-36-12.5c-4.135 0-7.5 3.365-7.5 7.5s3.365 7.5 7.5 7.5 7.5-3.365 7.5-7.5-3.365-7.5-7.5-7.5zm0 12.5c-2.758 0-5-2.242-5-5s2.242-5 5-5 5 2.242 5 5-2.242 5-5 5z"></path><path d="M740.773 53h-24.546c-.677 0-1.227.672-1.227 1.5s.55 1.5 1.227 1.5h24.546c.677 0 1.227-.672 1.227-1.5s-.55-1.5-1.227-1.5z"></path><path d="M745.927 37.805c-1.8-1.518-10.018-7.805-22.573-7.805-2.375 0-8.434.257-13.894 2.6h-5.773a1.23 1.23 0 0 0-1.135.803 1.353 1.353 0 0 0 .265 1.417l1.202 1.27C701.35 38.621 700 41.813 700 45.6c0 4.464.381 10.4 3.687 10.4.679 0 1.23-.583 1.23-1.3 0-.718-.551-1.3-1.23-1.3-.01-.003-1.229-.72-1.229-7.8 0-3.455 1.35-6.19 4.123-8.37a1.32 1.32 0 0 0 .494-.948 1.337 1.337 0 0 0-.356-1.014l-.064-.068h3.048c.162 0 .324-.034.472-.101 5.11-2.255 10.92-2.499 13.18-2.499 13.014 0 21.237 7.407 21.318 7.48.223.205.509.32.806.32 7.972 0 11.045 5.398 11.063 6.5v5.2c0 .678-.947 1.266-1.23 1.3h-2.458c-.678 0-1.23.582-1.23 1.3 0 .718.552 1.3 1.23 1.3h2.458c1.485 0 3.688-1.638 3.688-3.9v-5.2c0-2.465-4.024-8.89-13.073-9.095z"></path></g>
		</symbol>
	
		<symbol id="icon-case" viewBox="0 0 50 44">
			<title>005-briefcase</title><g fill="#FFF" stroke="#21282B"><path d="M47.905 25c-.657 0-1.096.424-1.096 1.059v13.765c0 .635-.438 1.058-1.095 1.058H4.286c-.658 0-1.096-.423-1.096-1.058V26.059c0-.636-.438-1.059-1.095-1.059S1 25.424 1 26.059v13.765C1 41.624 2.424 43 4.286 43h41.428C47.576 43 49 41.624 49 39.824V26.059c0-.636-.438-1.059-1.095-1.059z"></path><path d="M45.727 9H4.273C2.418 9 1 10.43 1 12.3v7.04c0 1.54 1.09 2.86 2.51 3.19l17.126 3.85v3.52c0 .66.437 1.1 1.091 1.1h6.546c.654 0 1.09-.44 1.09-1.1v-3.52l17.128-3.85C47.909 22.2 49 20.88 49 19.34V12.3c0-1.87-1.418-3.3-3.273-3.3zM27.182 28.8h-4.364v-4.4h4.364v4.4zm19.636-9.46c0 .55-.327.99-.873 1.1l-16.581 3.74v-.88c0-.66-.437-1.1-1.091-1.1h-6.546c-.654 0-1.09.44-1.09 1.1v.88L4.054 20.44c-.546-.11-.873-.55-.873-1.1V12.3c0-.66.436-1.1 1.09-1.1h41.455c.655 0 1.091.44 1.091 1.1v7.04zM29.813 1H19.188C17.38 1 16 2.56 16 4.6v1.2c0 .72.425 1.2 1.062 1.2.638 0 1.063-.48 1.063-1.2V4.6c0-.72.425-1.2 1.062-1.2h10.626c.637 0 1.062.48 1.062 1.2v1.2c0 .72.425 1.2 1.063 1.2C32.575 7 33 6.52 33 5.8V4.6C33 2.56 31.619 1 29.813 1z"></path></g>
		</symbol>
	
		<symbol id="icon-corp" viewBox="0 0 45 45">
			<title>noun_730835_cc</title><g fill="#FFF"><path d="M8.644 17.281h19.97c.325 0 .542-.209.542-.523 0-.314-.217-.523-.541-.523H8.644c-.325 0-.541.21-.541.523 0 .314.27.523.541.523zm0 4.657h19.97c.325 0 .542-.21.542-.524 0-.314-.217-.523-.541-.523H8.644c-.325 0-.541.21-.541.523 0 .314.27.524.541.524zm13.693 3.609H8.644c-.325 0-.541.21-.541.524 0 .314.216.523.541.523h13.638c.325 0 .542-.21.542-.523 0-.314-.217-.524-.487-.524zm0 4.657H8.644c-.325 0-.541.209-.541.523 0 .314.216.523.541.523h13.638c.325 0 .542-.21.542-.523 0-.314-.217-.523-.487-.523zm0 4.656H8.644c-.325 0-.541.21-.541.523 0 .314.216.523.541.523h13.638c.325 0 .542-.209.542-.523 0-.314-.217-.523-.487-.523z"></path><path d="M41.982 27.065a8.256 8.256 0 0 0-5.303-2.302V.853c0-.313-.217-.523-.542-.523H11.729c-.054 0-.108 0-.163.053h-.054c-.054 0-.108.052-.162.104L.742 10.794c-.054.052-.054.105-.108.157v.052c0 .052 0 .105-.054.157v33.17c0 .313.216.523.541.523h35.07c.325 0 .542-.21.542-.523v-3.61a8.256 8.256 0 0 0 5.304-2.302c3.193-3.192 3.193-8.267-.055-11.353zM11.242 2.109v8.528H2.42l8.822-8.528zm24.354 41.645H1.662v-32.07h10.121c.325 0 .541-.21.541-.524V1.377h23.272V24.71a8.256 8.256 0 0 0-5.304 2.302c-3.247 3.14-3.247 8.162 0 11.301a8.256 8.256 0 0 0 5.304 2.302v3.139zm5.629-6.173a7.245 7.245 0 0 1-5.088 2.04 7.245 7.245 0 0 1-5.087-2.04c-1.353-1.308-2.11-3.035-2.11-4.918 0-1.884.757-3.61 2.11-4.918a7.245 7.245 0 0 1 5.087-2.04 7.34 7.34 0 0 1 5.088 2.04c1.353 1.308 2.11 3.034 2.11 4.918 0 1.883-.757 3.61-2.11 4.918z"></path><path d="M39.276 30.204l-4.005 4.76-2.273-2.197a.536.536 0 0 0-.757 0 .494.494 0 0 0 0 .733l2.706 2.616c.054 0 .054.052.108.052 0 0 .054 0 .054.052.054 0 .108.053.217.053.054 0 .162 0 .216-.053l.054-.052c.054 0 .054-.052.108-.052l4.384-5.232c.163-.21.163-.576-.108-.733-.162-.209-.541-.209-.704.053z"></path></g>
		</symbol>
	
		<symbol id="icon-hotel" viewBox="0 0 56 55">
			<title>noun_803583_cc</title><path d="M30.077.219a.625.625 0 0 0-.494.604l-.038 5.446c0 .317.29.605.608.605h13.375a.63.63 0 0 0 .608-.605l.038-5.446a.63.63 0 0 0-.608-.604h-13.49zm.722 1.209h12.159l-.038 4.237H30.761l.038-4.237zM19.096 3.852a.626.626 0 0 0-.494.605V9.29c0 .316.29.604.608.604h1.216v3.626H1.466a.625.625 0 0 0-.494.604v3.626c0 .316.29.604.608.604h1.215v35.049H.858a.632.632 0 0 0-.551.66c.03.317.346.578.665.548h54.107a.63.63 0 0 0 .617-.604.63.63 0 0 0-.617-.604h-1.824V9.895h1.216a.63.63 0 0 0 .608-.604V4.457a.63.63 0 0 0-.608-.605h-9.727v1.209h9.12v3.626H19.817V5.06h9.12V3.852h-9.842zm2.546 6.043h30.397v43.509h-3.647V39.505a.63.63 0 0 0-.608-.604h-8.626a.625.625 0 0 0-.494.604v13.899H21.642V9.895zm4.142 3.626a.625.625 0 0 0-.494.604v3.626c0 .316.29.604.608.604h8.51a.63.63 0 0 0 .609-.604v-3.626a.63.63 0 0 0-.608-.604h-8.625zm13.374 0a.625.625 0 0 0-.494.604v3.626c0 .316.29.604.608.604h8.512a.63.63 0 0 0 .608-.604v-3.626a.63.63 0 0 0-.608-.604h-8.626zm-36.97 1.208h18.238v2.418H2.188v-2.418zm24.317 0h7.296v2.418h-7.296v-2.418zm13.375 0h7.296v2.418H39.88v-2.418zM4.011 18.355h16.415v35.049H4.011V18.355zm3.534 3.626a.625.625 0 0 0-.494.604v3.626c0 .316.29.604.608.604h8.511a.63.63 0 0 0 .608-.604v-3.626a.63.63 0 0 0-.608-.604H7.545zm18.239 0a.625.625 0 0 0-.494.604v3.626c0 .316.29.604.608.604h8.51a.63.63 0 0 0 .609-.604v-3.626a.63.63 0 0 0-.608-.604h-8.625zm13.374 0a.625.625 0 0 0-.494.604v3.626c0 .316.29.604.608.604h8.512a.63.63 0 0 0 .608-.604v-3.626a.63.63 0 0 0-.608-.604h-8.626zM8.267 23.189h7.295v2.418H8.267v-2.418zm18.238 0h7.296v2.418h-7.296v-2.418zm13.375 0h7.296v2.418H39.88v-2.418zM7.545 30.441a.625.625 0 0 0-.494.604v3.626c0 .316.29.604.608.604h8.511a.63.63 0 0 0 .608-.604v-3.626a.63.63 0 0 0-.608-.604H7.545zm18.239 0a.625.625 0 0 0-.494.604v3.626c0 .316.29.604.608.604h8.51a.63.63 0 0 0 .609-.604v-3.626a.63.63 0 0 0-.608-.604h-8.625zm13.374 0a.625.625 0 0 0-.494.604v3.626c0 .316.29.604.608.604h8.512a.63.63 0 0 0 .608-.604v-3.626a.63.63 0 0 0-.608-.604h-8.626zM8.267 31.649h7.295v2.418H8.267v-2.418zm18.238 0h7.296v2.418h-7.296v-2.418zm13.375 0h7.296v2.418H39.88v-2.418zM7.545 38.901a.625.625 0 0 0-.494.604v3.626c0 .316.29.604.608.604h8.511a.63.63 0 0 0 .608-.604v-3.626a.63.63 0 0 0-.608-.604H7.545zm18.239 0a.625.625 0 0 0-.494.604v3.626c0 .316.29.604.608.604h8.51a.63.63 0 0 0 .609-.604v-3.626a.63.63 0 0 0-.608-.604h-8.625zM8.267 40.109h7.295v2.418H8.267v-2.418zm18.238 0h7.296v2.418h-7.296v-2.418zm13.375 0h7.296v13.295H39.88V40.109z" fill="#FFF"></path>
		</symbol>
	
		<symbol id="icon-like" viewBox="0 0 55 46">
			<title>003-like</title><g transform="translate(1 1)" fill="#C50B1E" stroke="#FFF" opacity=".8"><path d="M48.34 15.702H36.61c1.207-2.166 2.01-4.227 2.397-6.154.492-2.454.284-4.652-.603-6.356C37.368 1.202 35.437.008 33.238 0h-.022c-1.502 0-2.624.555-3.334 1.65-.553.853-.774 1.892-1.03 3.095-.616 2.885-1.455 6.816-7.384 10.957h-4.656c-.64-1.83-2.366-3.144-4.39-3.144H1.551C.696 12.558 0 13.262 0 14.13v28.298C0 43.296.695 44 1.553 44H12.42c2.024 0 3.75-1.314 4.391-3.144h1.815C23.841 42.323 29.245 44 34.87 44h7.26c2.568 0 4.657-2.116 4.657-4.716 0-.614-.117-1.2-.329-1.739 2.656-.732 4.14-3.657 3.105-6.288 3.338-.921 4.554-5.086 2.245-7.694 2.681-3.03.548-7.86-3.468-7.86zm-34.366 1.585v21.997c0 .867-.697 1.572-1.553 1.572H3.105V15.702h9.316c.856 0 1.553.706 1.553 1.572v.013zm26.602 7.848h7.763c.856 0 1.553.705 1.553 1.572 0 .867-.697 1.572-1.553 1.572h-7.763c-.858 0-1.553.704-1.553 1.572 0 .868.695 1.572 1.553 1.572h4.658c.856 0 1.552.705 1.552 1.572 0 .867-.696 1.572-1.552 1.572h-4.658c-.858 0-1.553.704-1.553 1.572 0 .869.695 1.572 1.553 1.572h1.553c.856 0 1.552.706 1.552 1.573 0 .866-.696 1.572-1.552 1.572h-7.26c-5.24 0-10.52-1.657-15.615-3.087-.264-.074-.235-.037-2.175-.037V18.826c2.378 0 4.873.02 4.873.02.304-.001.6-.093.853-.263 7.327-4.946 8.425-10.097 9.082-13.175.483-2.267.564-2.266 1.34-2.264 1.06.004 1.924.542 2.43 1.513.486.936 1.7 4.548-3.126 11.733-.7 1.042.039 2.457 1.284 2.457h14.524c.856 0 1.553.705 1.553 1.572 0 .867-.697 1.572-1.553 1.572h-7.763c-.858 0-1.553.704-1.553 1.572 0 .868.695 1.572 1.553 1.572z"></path><circle cx="9.5" cy="35.5" r="1.5"></circle></g>
		</symbol>
	
		<symbol id="icon-list" viewBox="0 0 54 54">
			<title>Shape</title><path d="M51.66 17.364a4.576 4.576 0 0 0-6.464 0c-.548.55-4.05 4.053-4.584 4.588V9.879a4.54 4.54 0 0 0-1.339-3.231l-4.309-4.31A4.54 4.54 0 0 0 31.732 1H5.571A4.575 4.575 0 0 0 1 5.57v42.86C1 50.95 3.05 53 5.57 53h30.472c2.52 0 4.57-2.05 4.57-4.57V34.884L51.66 23.828a4.567 4.567 0 0 0 0-6.464zM31.471 4.047c.288 0 .843-.05 1.339.446l4.309 4.309c.483.484.446 1.013.446 1.339h-6.094V4.047zm6.094 44.383c0 .84-.683 1.523-1.523 1.523H5.57c-.84 0-1.524-.683-1.524-1.523V5.57c0-.84.684-1.523 1.524-1.523h22.853v7.617c0 .841.682 1.524 1.523 1.524h7.618v11.814L33.07 29.5l-2.154 2.154a1.523 1.523 0 0 0-.368.595l-2.154 6.463a1.523 1.523 0 0 0 1.927 1.928l6.464-2.155c.224-.075.428-.2.595-.368l.185-.185V48.43zm-3.417-15.7l2.155 2.155-.823.823-3.232 1.077 1.077-3.231.823-.823zm4.31 0l-2.156-2.154 7.324-7.33 2.155 2.155-7.324 7.33zm11.047-11.056l-1.57 1.572-2.155-2.155 1.571-1.572a1.523 1.523 0 1 1 2.154 2.155z" fill="#C50B1E" stroke="#FFF" opacity=".8"></path>
		</symbol>
	
		<symbol id="icon-museum" viewBox="0 0 52 45">
			<title>001-museum-1</title><g fill="#FFF"><path d="M32.176 14h1.648c.647 0 1.176-.225 1.176-.5s-.53-.5-1.176-.5h-1.648c-.647 0-1.176.225-1.176.5s.53.5 1.176.5z"></path><path d="M50.79 40.471l-1.263-3.12a2.552 2.552 0 0 0-2.324-1.534h-1.111V15.46h2.172a2.01 2.01 0 0 0 1.97-1.585c.203-.92-.252-1.893-1.11-2.302L28.103 1.5c-1.314-.665-2.88-.665-4.295 0L2.69 11.574c-.859.41-1.314 1.33-1.111 2.302.202.971 1.01 1.636 1.97 1.636H5.67v20.356h-.91c-1.01 0-1.92.614-2.324 1.534l-1.263 3.069a2.69 2.69 0 0 0 .253 2.404A2.47 2.47 0 0 0 3.498 44h44.968a2.47 2.47 0 0 0 2.072-1.125c.505-.665.606-1.586.253-2.404zM3.6 13.415L24.669 3.34c.858-.41 1.768-.41 2.576 0l21.07 10.075H45.08c-.556 0-1.01.46-1.01 1.023 0 .103 0 .154.05.205 0 .051-.05.153-.05.204v20.97h-4.043V21.599c0-2.25-1.819-4.092-4.042-4.092s-4.042 1.841-4.042 4.092v14.269h-2.021v-14.27c0-2.25-1.819-4.091-4.042-4.091s-4.042 1.841-4.042 4.092v14.269h-2.021v-14.27c0-2.25-1.82-4.091-4.042-4.091-2.224 0-4.043 1.841-4.043 4.092v14.269H7.691V15.461h19.756c.556 0 1.01-.46 1.01-1.023a1.02 1.02 0 0 0-1.01-1.023H3.6zM38.007 21.6v14.269h-4.042v-14.27c0-1.125.91-2.045 2.021-2.045 1.112 0 2.021.92 2.021 2.046zm-10.105 0v14.269H23.86v-14.27c0-1.125.91-2.045 2.02-2.045 1.112 0 2.022.92 2.022 2.046zm-10.105 0v14.269h-4.043v-14.27c0-1.125.91-2.045 2.022-2.045 1.111 0 2.02.92 2.02 2.046zm31.074 20.15c-.05.052-.203.256-.405.256H3.498a.418.418 0 0 1-.405-.255c-.05-.052-.151-.256-.05-.512l1.263-3.017a.555.555 0 0 1 .505-.307h42.443c.202 0 .404.102.505.307l1.263 3.068c0 .205-.1.41-.151.46z" stroke="#403C3C"></path></g>
		</symbol>
	
		<symbol id="icon-noun" viewBox="0 0 48 52">
			<title>noun_850693_cc</title><path d="M39.463 12.87a6.206 6.206 0 0 0 .501-7.346 6.034 6.034 0 0 0-6.82-2.56c-2.583.773-4.354 3.176-4.35 5.902 0 .744-.595 1.346-1.329 1.346a1.337 1.337 0 0 1-1.329-1.346c-.01-3.925 2.537-7.387 6.255-8.502 3.718-1.114 7.716.387 9.818 3.686a8.929 8.929 0 0 1-.732 10.575 1.32 1.32 0 0 1-2.28-.422c-.156-.46-.054-.97.266-1.333zm-14.666-.215c9.254 0 17.307 5.855 19.232 13.793 1.766.2 3.162 1.608 3.364 3.396a3.797 3.797 0 0 1-.956 2.917 3.704 3.704 0 0 1-2.446 1.227 16.742 16.742 0 0 1-3.928 7.179L37.49 49.74A3.141 3.141 0 0 1 34.477 52h-2.621a3.195 3.195 0 0 1-3.03-2.309l-.67-2.34a22.506 22.506 0 0 1-6.708 0l-.675 2.34a3.195 3.195 0 0 1-3.024 2.298h-2.626a3.141 3.141 0 0 1-3.014-2.26l-1.903-6.318a33.726 33.726 0 0 1-8.532-5.527A5.206 5.206 0 0 1 0 34.058v-5.22c0-2.238 1.792-4.053 4.003-4.053h1.1c.92-.91 1.726-1.928 2.403-3.035l.148-.237a5.271 5.271 0 0 0-1.382-2.346 2.916 2.916 0 0 1-.622-3.052 2.934 2.934 0 0 1 2.541-1.942A10.798 10.798 0 0 1 14.3 15.35a21.43 21.43 0 0 1 10.503-2.696h-.005zm0 2.69a18.74 18.74 0 0 0-9.595 2.595 1.783 1.783 0 0 1-1.817 0 8.072 8.072 0 0 0-4.981-1.076.282.282 0 0 0-.25.193.212.212 0 0 0 .043.232 7.566 7.566 0 0 1 2.221 4.37c.039.326-.043.655-.228.925-.133.194-.26.393-.383.592a18.689 18.689 0 0 1-3.242 3.956 1.32 1.32 0 0 1-.899.35H4.02c-.743 0-1.345.609-1.345 1.361v5.22c0 .699.291 1.365.802 1.835a31.206 31.206 0 0 0 8.006 5.14 2.29 2.29 0 0 1 1.227 1.415l1.962 6.506c.06.214.254.36.473.356h2.62a.532.532 0 0 0 .474-.361l.93-3.229a1.63 1.63 0 0 1 1.86-1.146c2.499.485 5.066.485 7.564 0a1.65 1.65 0 0 1 .309-.033 1.63 1.63 0 0 1 1.552 1.174l.93 3.229c.07.206.258.348.473.36h2.62a.484.484 0 0 0 .474-.355l2.578-8.664c.105-.338.287-.646.531-.9a13.903 13.903 0 0 0 3.546-6.995 1.334 1.334 0 0 1 1.307-1.109h.75c.306.003.599-.129.802-.36.21-.23.311-.54.277-.85a1.163 1.163 0 0 0-1.17-.985h-.637a1.334 1.334 0 0 1-1.308-1.12c-1.196-7.19-8.436-12.625-16.824-12.625h-.005zm-7.032 23.099c.582.45 1.415.336 1.86-.253L29.9 24.59a1.36 1.36 0 0 0 .159-1.335 1.322 1.322 0 1 0-2.285-.279l-10.26 13.578a1.358 1.358 0 0 0 .25 1.889zm11.231-7.82c2.207.003 3.995 1.813 3.998 4.047v.824c-.153 2.115-1.893 3.752-3.987 3.752-2.095 0-3.834-1.637-3.987-3.752v-.824c.003-2.225 1.778-4.032 3.976-4.047zm0 2.691c-.74 0-1.34.607-1.34 1.356v.824a1.345 1.345 0 0 0 1.33 1.185c.674 0 1.244-.508 1.329-1.185v-.824c0-.74-.587-1.344-1.319-1.356zm-10.578-2.788c-2.206-.003-3.994-1.813-3.997-4.047v-.823a4.062 4.062 0 0 1 1.904-3.75 3.955 3.955 0 0 1 4.165 0 4.062 4.062 0 0 1 1.904 3.75v.823c-.003 2.226-1.778 4.033-3.976 4.047zm0-2.69c.356 0 .696-.143.948-.398.25-.254.392-.599.392-.959v-.823a1.362 1.362 0 0 0-.611-1.315 1.326 1.326 0 0 0-1.436 0 1.362 1.362 0 0 0-.61 1.315v.823a1.348 1.348 0 0 0 1.317 1.357z" fill="#C50B1E" opacity=".8"></path>
		</symbol>
	
		<symbol id="icon-plane" viewBox="0 0 59 50">
			<title>noun_1322419_cc</title><path d="M10.963 3.623a1.344 1.344 0 0 0-.604.952c-.052.39.072.779.339 1.065l13.535 14.336-12.468 7.003-4.728-2.818a1.345 1.345 0 0 0-1.29-.04l-3.584 1.827c-.348.179-.602.5-.694.877a1.31 1.31 0 0 0 .213 1.087l4.672 6.308L8.7 41.688c.115.374.39.678.753.829.362.15.775.135 1.128-.045l3.584-1.826c.41-.21.684-.613.727-1.067l.499-5.481 12.995-5.97 3.632 19.357c.076.41.34.758.716.941.375.183.817.18 1.193-.008l5.377-2.74c.409-.21.683-.613.726-1.067l1.792-17.987a1.317 1.317 0 0 0-1.195-1.447 1.352 1.352 0 0 0-1.47 1.202l-1.728 17.28-3.118 1.59-3.632-19.312a1.312 1.312 0 0 0-.69-.911 1.345 1.345 0 0 0-1.154-.032L13.6 32.014c-.439.2-.738.619-.782 1.095l-.509 5.51-1.53.78-1.943-6.212c-.043-.14-.11-.27-.197-.388l-3.856-5.213 1.512-.77 4.756 2.826c.412.244.926.248 1.346.011l14.634-8.2c.355-.205.598-.559.659-.961a1.312 1.312 0 0 0-.347-1.102L13.864 5.118l3.137-1.598 19.735 11.55c.411.243.925.247 1.346.01l11.59-6.649.056-.029c.85-.414 2.183-.617 3.327-.44 1.165.18 2.012.718 2.303 1.289.29.571.219 1.553-.32 2.602-.53 1.03-1.467 2.007-2.303 2.45l-.056.03L40.487 19.8a1.349 1.349 0 0 0-.787 1.084c-.05.473.159.934.546 1.209s.895.323 1.332.125l12.248-5.497.056-.029c1.506-.767 2.734-2.119 3.523-3.654.79-1.534 1.176-3.37.342-5.005-.833-1.636-2.554-2.421-4.26-2.685-1.706-.264-3.511-.046-5.017.721l-.056.029-10.975 6.289L17.732.848a1.345 1.345 0 0 0-1.28-.021l-5.377 2.74a1.357 1.357 0 0 0-.112.056z" fill="#FFF" stroke="#544B43"></path>
		</symbol>
	
		<symbol id="icon-prof" viewBox="0 0 43 54">
			<title>005-assistance</title><g fill="#C50B1E" opacity=".8"><path d="M38.692 32.036a1.36 1.36 0 0 0-.063-.02l-5.665-1.623-4.021-3.855v-1.036c1.924-1.931 3.136-4.599 3.136-7.541v-6.297C32.08 5.8 27.353 1 21.488 1c-5.852 0-10.612 4.784-10.612 10.664v6.297c0 2.942 1.212 5.61 3.136 7.541v1.037l-3.995 3.849-5.558 1.631a1.61 1.61 0 0 0-.055.017c-2.44.817-3.868 3.412-3.267 5.92l2.68 13.812a1.518 1.518 0 0 0 1.613 1.226c.039.003.077.006.116.006h32.1c.72 0 1.34-.509 1.486-1.217l2.826-13.818c.606-2.511-.823-5.11-3.266-5.929zm-8.556-.15L25.8 38.42l-2.363-2.375 4.288-6.495 2.41 2.335zm-8.648-27.84a7.56 7.56 0 0 1 6.061 3.05 7.6 7.6 0 0 1-6.061 3.045H14.06c.705-3.473 3.767-6.094 7.428-6.094zm-7.6 13.915v-4.774h7.6a10.62 10.62 0 0 0 7.426-3.051c.1.494.154 1.005.154 1.528v6.297c0 4.2-3.4 7.617-7.58 7.617s-7.6-3.417-7.6-7.617zm1.363 11.59l4.288 6.495-2.363 2.375-4.336-6.535 2.41-2.335zm4.72 20.402H6.555c-.011-.058-2.45-12.636-2.465-12.693a1.97 1.97 0 0 1 1.251-2.326l4.92-1.444 5.419 8.167c.53.799 1.656.913 2.333.233l1.96-1.97v10.033zm-2.12-21.973c1.135.417 2.36.645 3.637.645 1.276 0 2.501-.228 3.636-.645l-3.636 5.507-3.636-5.507zm21.143 9.343l-2.583 12.63H22.984V39.92l1.98 1.97c.676.68 1.803.567 2.333-.233l5.418-8.167 5.046 1.446c.828.291 1.489 1.146 1.233 2.387z" stroke="#FFF"></path><path d="M33.92 43.774h-2.936c-.81 0-1.468.751-1.468 1.678 0 .926.657 1.677 1.468 1.677h2.935c.81 0 1.468-.751 1.468-1.677 0-.927-.657-1.678-1.468-1.678z"></path></g>
		</symbol>
	
		<symbol id="icon-time" viewBox="0 0 54 54">
			<title>004-24-hours</title><g fill="#C50B1E" stroke="#FFF" opacity=".8"><path d="M22.956 30.987h-4.112c.321-.828.985-1.197 1.946-1.732 1.523-.848 3.61-2.009 3.61-5.635 0-2.437-1.944-4.42-4.333-4.42-2.39 0-4.334 1.983-4.334 4.42 0 .814.647 1.473 1.445 1.473.797 0 1.444-.66 1.444-1.473 0-.812.648-1.473 1.445-1.473.796 0 1.463.66 1.463 1.473 0 1.877-.767 2.293-2.124 3.048-1.55.863-3.673 2.044-3.673 5.792 0 .814.647 1.473 1.445 1.473h5.778c.797 0 1.444-.66 1.444-1.473 0-.814-.647-1.473-1.444-1.473zm16.394-5.894h-1.517v-4.42c0-.813-.679-1.473-1.516-1.473-.838 0-1.517.66-1.517 1.473v4.42h-3.033v-4.42c0-.813-.68-1.473-1.517-1.473-.838 0-1.517.66-1.517 1.473v5.894c0 .813.68 1.473 1.517 1.473h4.55v4.42c0 .814.68 1.473 1.517 1.473.837 0 1.516-.66 1.516-1.473v-4.42h1.517c.838 0 1.517-.66 1.517-1.473 0-.814-.68-1.474-1.517-1.474z"></path><path d="M51.477 25.578c-.842 0-1.504.682-1.504 1.524 0 12.6-10.362 22.871-23.075 22.871-7.213 0-13.994-3.485-18.28-9.18 3.214 0 3.467.037 3.871-.225 3.852 4.137 9.017 6.338 14.41 6.338 10.917 0 20.007-9.054 20.007-20.008 0-3.83-1.109-7.501-3.176-10.664h4.7c.841 0 1.523-.682 1.523-1.523V8.617a1.523 1.523 0 0 0-3.047 0v1.605C42.008 4.448 34.686 1 26.898 1 12.59 1 1 12.575 1 26.898c0 .842.682 1.524 1.523 1.524.842 0 1.504-.682 1.504-1.524 0-12.6 10.271-22.871 22.871-22.871 7.325 0 14.18 3.485 18.482 9.18-3.296 0-3.379-.09-3.866.223-3.902-4.133-9.149-6.336-14.616-6.336-10.92 0-19.804 8.884-19.804 19.804a19.91 19.91 0 0 0 3.208 10.868H5.57c-.841 0-1.523.682-1.523 1.523v6.094a1.523 1.523 0 0 0 3.047 0V43.79A25.862 25.862 0 0 0 26.898 53C41.107 53 53 41.521 53 27.102c0-.842-.682-1.524-1.523-1.524zm-41.357 1.32c0-9.24 7.538-16.778 16.778-16.778 9.353 0 16.982 7.538 16.982 16.778 0 9.194-7.788 16.982-16.982 16.982-9.24 0-16.778-7.63-16.778-16.982z"></path></g>
		</symbol>
	
		<symbol id="icon-wallet" viewBox="0 0 46 52">
			<title>001-wallet</title><g fill="#C50B1E" fill-opacity=".8"><path d="M43.594 8.956L27.656.36c-1.512-.816-3.591-.189-4.41 1.317l-9.324 17.256H2.582A2.55 2.55 0 0 0 0 21.505v27.922C0 50.871 1.134 52 2.583 52h36.223c1.45 0 2.583-1.13 2.583-2.573v-6.525h1.071a.993.993 0 0 0 1.008-1.004V34.43a.993.993 0 0 0-1.008-1.004h-1.07v-7.341c0-1.192-.883-2.26-2.017-2.51l5.544-10.228a3.283 3.283 0 0 0-1.323-4.392zm-11.34-3.828l-9.953 18.385h-2.835L30.113 4l2.142 1.13zm-7.181-2.51c.315-.564 1.07-.815 1.638-.501l1.575.878-11.088 20.518h-3.465L25.073 2.62zM1.953 21.444c0-.189.252-.502.567-.502h10.268l-1.386 2.51H2.52c-.19 0-.378 0-.567.062v-2.07zM39.31 49.427a.563.563 0 0 1-.567.565H2.52a.563.563 0 0 1-.567-.565V26.086c0-.314.252-.565.567-.565h36.16c.315 0 .567.251.567.565v7.341h-3.843c-1.7 0-3.023 1.38-3.023 3.012v3.45c0 1.695 1.385 3.013 3.023 3.013h3.906v6.525zm2.016-13.992h.063v5.459h-5.985a.993.993 0 0 1-1.008-1.004v-3.451a.993.993 0 0 1 1.008-1.004h5.922zm1.764-23.09l-6.048 11.168H24.57l9.45-17.38 8.567 4.643c.63.25.82 1.004.504 1.568z"></path><path d="M39.65 11.46l-.52-.248c-1.297-.684-3.048-.187-3.762 1.056l-.648 1.18c-.325.622-.454 1.368-.195 2.052.195.683.714 1.243 1.362 1.554l.52.248c.389.187.843.31 1.297.31a2.942 2.942 0 0 0 2.465-1.366l.649-1.181a2.726 2.726 0 0 0-1.168-3.605zm-1.12 2.284l-.637 1.053c-.192.277-.638.388-.957.222l-.51-.277c-.128-.056-.256-.222-.32-.333-.063-.166-.063-.332.064-.443l.638-1.053c.128-.166.383-.332.638-.332a.65.65 0 0 1 .32.055l.51.222c.255.221.382.554.255.886z"></path></g>
		</symbol>
	
</svg>
